<svg width="393" height="703" viewBox="0 0 393 703" fill="none" xmlns="http://www.w3.org/2000/svg">
<g opacity="0.7">
<rect width="394" height="703" transform="translate(-1)" fill="#F3FFFE"/>
<mask id="mask0_46_18207" style="mask-type:alpha" maskUnits="userSpaceOnUse" x="-1" y="0" width="394" height="703">
<rect opacity="0.5" x="-1" width="394" height="703" fill="white"/>
</mask>
<g mask="url(#mask0_46_18207)">
<path d="M167.931 -172.048L210.725 -182.807L178.956 -158.217L174.585 -154.996V-163.991L167.931 -172.048Z" fill="#81EEE7"/>
<path d="M210.758 -182.807L187.045 -152.017L180.497 -159.467L210.758 -182.807Z" fill="#B6F3EF"/>
<path d="M65.4569 -64.0332L22.6627 -74.7924L54.432 -50.2025L58.8031 -46.9808V-55.976L65.4569 -64.0332Z" fill="#81EEE7"/>
<path d="M22.6303 -74.7924L46.3432 -44.002L52.891 -51.4526L22.6303 -74.7924Z" fill="#B6F3EF"/>
<path d="M160.512 -82.8929L157.767 -85.6383L172.926 -97.1432L175.278 -92.6982L190.698 -104.464L192.135 -100.673L174.363 -87.0765L171.488 -91.1293L160.512 -82.8929Z" fill="#81EEE7"/>
<path d="M214.513 -69.7481L211.769 -72.4936L226.927 -83.9985L229.28 -79.5534L244.699 -91.3197L246.137 -87.5284L228.365 -73.9317L225.49 -77.9846L214.513 -69.7481Z" fill="#81EEE7"/>
<path d="M5.03541 -157.786L1.26329 -161.56L22.0978 -177.373L25.3307 -171.263L46.5243 -187.435L48.4999 -182.224L24.0735 -163.536L20.1222 -169.107L5.03541 -157.786Z" fill="#81EEE7"/>
<path d="M194.253 -46.4459H155.228C154.201 -50.4052 156.571 -54.4471 160.528 -55.4747C162.302 -55.9382 164.188 -55.7226 165.814 -54.8747C166.956 -61.3634 173.14 -65.6999 179.626 -64.5574C186.04 -63.4257 190.363 -57.3574 189.333 -50.919C191.872 -50.8938 193.987 -48.9717 194.253 -46.4459Z" fill="#81EEE7"/>
<path d="M44.0403 -98.3205H-1.28372C-2.47938 -102.917 0.278122 -107.613 4.87211 -108.809C6.9333 -109.345 9.1221 -109.098 11.0113 -108.112C12.3512 -115.648 19.5446 -120.668 27.0764 -119.325C34.5028 -118.001 39.5073 -110.974 38.3283 -103.519C41.2744 -103.488 43.7323 -101.257 44.043 -98.3233H44.0403V-98.3205Z" fill="#81EEE7"/>
<path d="M294.549 -104.536H249.225C248.03 -109.132 250.787 -113.828 255.381 -115.025C257.442 -115.56 259.631 -115.313 261.52 -114.328C262.86 -121.863 270.054 -126.884 277.586 -125.541C285.012 -124.217 290.016 -117.19 288.837 -109.735C291.784 -109.704 294.241 -107.473 294.552 -104.539H294.549V-104.536Z" fill="#81EEE7"/>
<path d="M111.846 -46.3059L124.256 -61.632L104.307 -59.8496L111.846 -46.3059Z" fill="#81EEE7"/>
<path d="M157.11 -122.617L167.488 -135.435L150.805 -133.944L157.11 -122.617Z" fill="#81EEE7"/>
<path d="M101.005 -172.747C101.005 -172.747 100.995 -172.743 100.991 -172.739C93.43 -168.86 90.4448 -159.582 94.3221 -152.017L121.745 -166.073C117.858 -173.643 108.574 -176.63 101.005 -172.745V-172.747Z" fill="#81EEE7"/>
<path d="M232.386 -159.48C232.386 -159.48 232.378 -159.477 232.375 -159.474C226.444 -156.431 224.103 -149.153 227.144 -143.219L248.654 -154.245C245.605 -160.183 238.323 -162.526 232.386 -159.479V-159.48Z" fill="#81EEE7"/>
<path d="M205.486 -129.713C202.018 -129.712 199.208 -126.898 199.209 -123.429C199.211 -119.961 202.022 -117.15 205.489 -117.15H205.492C208.96 -117.151 211.768 -119.965 211.767 -123.434C211.765 -126.904 208.953 -129.713 205.486 -129.713Z" fill="#81EEE7"/>
<path d="M58.5125 -143.725C53.757 -143.723 49.9048 -139.865 49.9069 -135.109C49.909 -130.353 53.7633 -126.499 58.5167 -126.499H58.5208C63.2764 -126.501 67.1265 -130.359 67.1244 -135.115C67.1223 -139.873 63.266 -143.725 58.5125 -143.725Z" fill="#81EEE7"/>
<path d="M85.6828 -90.6656L113.67 -98.4893L101.285 -119.305L81.2988 -97.9976L85.6828 -90.6656Z" fill="#81EEE7"/>
<path d="M116.767 -125.444L115.132 -127.197L107.462 -119.777L109.433 -118.037L116.767 -125.444Z" fill="#81EEE7"/>
<path d="M115.791 -116.402L117.192 -114.177L124.218 -117.979L123.138 -120.123L115.791 -116.402Z" fill="#81EEE7"/>
<path d="M118.358 -104.464L126.028 -106.688L125.433 -109.011L117.464 -106.937L118.358 -104.464Z" fill="#81EEE7"/>
<path d="M289.734 -80.534L261.747 -72.7103L274.132 -51.8944L294.118 -73.202L289.734 -80.534Z" fill="#81EEE7"/>
<path d="M258.65 -45.7559L260.285 -44.0022L267.955 -51.4227L265.984 -53.1629L258.65 -45.7559Z" fill="#81EEE7"/>
<path d="M259.626 -54.7973L258.226 -57.0225L251.2 -53.2205L252.279 -51.077L259.626 -54.7973Z" fill="#81EEE7"/>
<path d="M257.059 -66.7351L249.389 -64.5113L249.985 -62.1883L257.953 -64.2621L257.059 -66.7351Z" fill="#81EEE7"/>
<path d="M296.625 -157.786L300.397 -161.56L279.562 -177.373L276.329 -171.263L255.136 -187.435L253.16 -182.224L277.587 -163.536L281.538 -169.107L296.625 -157.786Z" fill="#81EEE7"/>
<path d="M158.922 -18.4833L201.716 -29.2425L169.946 -4.65265L165.575 -1.43088V-10.4261L158.922 -18.4833Z" fill="#81EEE7"/>
<path d="M201.748 -29.2425L178.035 1.54785L171.487 -5.90271L201.748 -29.2425Z" fill="#B6F3EF"/>
<path d="M56.4541 89.5313L13.66 78.7722L45.4292 103.362L49.8003 106.584V97.5886L56.4541 89.5313Z" fill="#81EEE7"/>
<path d="M13.6274 78.7721L37.3403 109.562L43.8881 102.112L13.6274 78.7721Z" fill="#B6F3EF"/>
<path d="M151.507 70.6719L148.763 67.9264L163.921 56.4215L166.273 60.8666L181.693 49.1003L183.131 52.8916L165.359 66.4883L162.484 62.4354L151.507 70.6719Z" fill="#81EEE7"/>
<path d="M205.505 83.8166L202.76 81.0711L217.919 69.5663L220.271 74.0113L235.69 62.245L237.128 66.0364L219.356 79.6331L216.481 75.5802L205.505 83.8166Z" fill="#81EEE7"/>
<path d="M-3.96912 -4.22165L-7.74125 -7.99515L13.0933 -23.808L16.3262 -17.6985L37.5197 -33.8707L39.4954 -28.6596L15.069 -9.97174L11.1176 -15.5421L-3.96912 -4.22165Z" fill="#81EEE7"/>
<path d="M185.25 107.119H146.225C145.198 103.16 147.568 99.1176 151.526 98.09C153.3 97.6266 155.185 97.8421 156.812 98.69C157.954 92.2014 164.138 87.8648 170.624 89.0073C177.037 90.1391 181.361 96.2074 180.33 102.646C182.869 102.671 184.985 104.593 185.25 107.119Z" fill="#81EEE7"/>
<path d="M35.0357 55.2442H-10.2882C-11.4839 50.648 -8.72641 45.952 -4.13242 44.7558C-2.07123 44.2201 0.117573 44.4671 2.00676 45.4524C3.34668 37.917 10.54 32.8962 18.0718 34.2395C25.4982 35.5634 30.5028 42.5909 29.3238 50.0457C32.2699 50.0763 34.7278 52.3078 35.0385 55.2414H35.0357V55.2442Z" fill="#81EEE7"/>
<path d="M285.545 49.0286H240.221C239.025 44.4324 241.783 39.7363 246.377 38.5401C248.438 38.0044 250.627 38.2515 252.516 39.2368C253.856 31.7014 261.049 26.6806 268.581 28.0239C276.007 29.3478 281.012 36.3752 279.833 43.8301C282.779 43.8607 285.237 46.0921 285.548 49.0258H285.545V49.0286Z" fill="#81EEE7"/>
<path d="M102.84 107.259L115.249 91.9328L95.3004 93.7152L102.84 107.259Z" fill="#81EEE7"/>
<path d="M148.105 30.9476L158.483 18.13L141.8 19.6207L148.105 30.9476Z" fill="#81EEE7"/>
<path d="M92.0026 -19.1824C92.0026 -19.1824 91.9929 -19.1785 91.989 -19.1747C84.4276 -15.2956 81.4424 -6.01703 85.3197 1.54797L112.742 -12.5079C108.855 -20.0787 99.5717 -23.0653 92.0026 -19.1805V-19.1824Z" fill="#81EEE7"/>
<path d="M223.384 -5.91522C223.384 -5.91522 223.376 -5.9122 223.373 -5.90918C217.442 -2.86646 215.1 4.41156 218.142 10.3455L239.652 -0.67984C236.603 -6.61832 229.321 -8.961 223.384 -5.91373V-5.91522Z" fill="#81EEE7"/>
<path d="M196.479 23.8516C193.011 23.8531 190.201 26.6671 190.203 30.1356C190.204 33.6042 193.015 36.415 196.482 36.415H196.485C199.954 36.4135 202.762 33.5996 202.76 30.131C202.759 26.661 199.946 23.8516 196.479 23.8516Z" fill="#81EEE7"/>
<path d="M49.508 9.83984C44.7525 9.84192 40.9003 13.7001 40.9024 18.4558C40.9045 23.2115 44.7587 27.0654 49.5122 27.0654H49.5163C54.2718 27.0634 58.1219 23.2052 58.1199 18.4495C58.1178 13.6918 54.2615 9.83984 49.508 9.83984Z" fill="#81EEE7"/>
<path d="M76.6799 62.899L104.667 55.0753L92.2824 34.2595L72.2959 55.567L76.6799 62.899Z" fill="#81EEE7"/>
<path d="M107.764 28.1209L106.129 26.3672L98.4591 33.7877L100.43 35.5279L107.764 28.1209Z" fill="#81EEE7"/>
<path d="M106.788 37.1624L108.189 39.3875L115.215 35.5855L114.135 33.442L106.788 37.1624Z" fill="#81EEE7"/>
<path d="M109.355 49.1002L117.026 46.8763L116.43 44.5533L108.461 46.6271L109.355 49.1002Z" fill="#81EEE7"/>
<path d="M280.727 73.0307L252.74 80.8544L265.125 101.67L285.111 80.3628L280.727 73.0307Z" fill="#81EEE7"/>
<path d="M249.643 107.809L251.278 109.563L258.948 102.142L256.977 100.402L249.643 107.809Z" fill="#81EEE7"/>
<path d="M250.619 98.7675L249.218 96.5422L242.192 100.344L243.272 102.488L250.619 98.7675Z" fill="#81EEE7"/>
<path d="M248.051 86.8296L240.381 89.0535L240.977 91.3765L248.946 89.3026L248.051 86.8296Z" fill="#81EEE7"/>
<path d="M287.622 -4.22165L291.395 -7.99515L270.56 -23.808L267.327 -17.6985L246.134 -33.8707L244.158 -28.6596L268.584 -9.97174L272.536 -15.5421L287.622 -4.22165Z" fill="#81EEE7"/>
<path d="M476.979 -33.1954L519.773 -43.9546L488.004 -19.3647L483.633 -16.143V-25.1382L476.979 -33.1954Z" fill="#81EEE7"/>
<path d="M519.806 -43.9546L496.093 -13.1642L489.545 -20.6148L519.806 -43.9546Z" fill="#B6F3EF"/>
<path d="M374.505 74.8195L331.711 64.0603L363.48 88.6502L367.851 91.8719V82.8767L374.505 74.8195Z" fill="#81EEE7"/>
<path d="M331.679 64.0603L355.392 94.8507L361.939 87.4001L331.679 64.0603Z" fill="#B6F3EF"/>
<path d="M469.561 55.9598L466.817 53.2143L481.975 41.7095L484.327 46.1545L499.747 34.3882L501.184 38.1796L483.413 51.7762L480.538 47.7234L469.561 55.9598Z" fill="#81EEE7"/>
<path d="M523.563 69.1045L520.818 66.359L535.977 54.8542L538.329 59.2992L553.749 47.5329L555.186 51.3243L537.414 64.9209L534.539 60.8681L523.563 69.1045Z" fill="#81EEE7"/>
<path d="M314.085 -18.9338L310.313 -22.7073L331.147 -38.5201L334.38 -32.4106L355.574 -48.5828L357.549 -43.3717L333.123 -24.6838L329.171 -30.2543L314.085 -18.9338Z" fill="#81EEE7"/>
<path d="M503.302 92.4068H464.277C463.25 88.4475 465.62 84.4055 469.578 83.378C471.352 82.9145 473.237 83.1301 474.864 83.978C476.006 77.4893 482.19 73.1528 488.675 74.2953C495.089 75.4271 499.413 81.4954 498.382 87.9337C500.921 87.9589 503.036 89.881 503.302 92.4068Z" fill="#81EEE7"/>
<path d="M353.09 40.5321H307.766C306.57 35.9359 309.327 31.2399 313.921 30.0436C315.983 29.508 318.171 29.755 320.061 30.7403C321.401 23.2049 328.594 18.1841 336.126 19.5274C343.552 20.8513 348.557 27.8788 347.378 35.3336C350.324 35.3642 352.782 37.5957 353.092 40.5293H353.09V40.5321Z" fill="#81EEE7"/>
<path d="M603.599 34.3164H558.275C557.079 29.7202 559.837 25.0241 564.431 23.8279C566.492 23.2923 568.681 23.5392 570.57 24.5245C571.91 16.9892 579.103 11.9684 586.635 13.3117C594.061 14.6356 599.066 21.6631 597.887 29.118C600.833 29.1485 603.291 31.3799 603.602 34.3136H603.599V34.3164Z" fill="#81EEE7"/>
<path d="M420.896 92.5467L433.305 77.2206L413.356 79.003L420.896 92.5467Z" fill="#81EEE7"/>
<path d="M466.159 16.2355L476.537 3.41794L459.854 4.90857L466.159 16.2355Z" fill="#81EEE7"/>
<path d="M410.054 -33.8943C410.054 -33.8943 410.045 -33.8905 410.041 -33.8866C402.479 -30.0075 399.494 -20.729 403.371 -13.164L430.794 -27.2199C426.907 -34.7907 417.623 -37.7773 410.054 -33.8924V-33.8943Z" fill="#81EEE7"/>
<path d="M541.435 -20.6275C541.435 -20.6275 541.428 -20.6245 541.425 -20.6214C535.494 -17.5787 533.152 -10.3007 536.193 -4.36673L557.704 -15.3921C554.655 -21.3306 547.373 -23.6732 541.435 -20.6259V-20.6275Z" fill="#81EEE7"/>
<path d="M514.535 9.13943C511.067 9.14093 508.257 11.9549 508.259 15.4234C508.26 18.8919 511.071 21.7028 514.538 21.7028H514.541C518.01 21.7013 520.818 18.8874 520.816 15.4189C520.815 11.9488 518.002 9.13943 514.535 9.13943Z" fill="#81EEE7"/>
<path d="M367.562 -4.87213C362.806 -4.87006 358.954 -1.01193 358.956 3.74377C358.958 8.49945 362.813 12.3535 367.566 12.3535H367.57C372.326 12.3514 376.176 8.49326 376.174 3.73755C376.172 -1.0202 372.315 -4.87213 367.562 -4.87213Z" fill="#81EEE7"/>
<path d="M394.729 48.1871L422.716 40.3634L410.332 19.5475L390.345 40.8551L394.729 48.1871Z" fill="#81EEE7"/>
<path d="M425.813 13.4089L424.178 11.6553L416.508 19.0758L418.479 20.816L425.813 13.4089Z" fill="#81EEE7"/>
<path d="M424.837 22.4504L426.238 24.6756L433.264 20.8736L432.184 18.7301L424.837 22.4504Z" fill="#81EEE7"/>
<path d="M427.405 34.3882L435.075 32.1644L434.479 29.8414L426.51 31.9152L427.405 34.3882Z" fill="#81EEE7"/>
<path d="M598.783 58.3186L570.795 66.1423L583.18 86.9582L603.167 65.6507L598.783 58.3186Z" fill="#81EEE7"/>
<path d="M567.699 93.0968L569.334 94.8504L577.004 87.43L575.033 85.6897L567.699 93.0968Z" fill="#81EEE7"/>
<path d="M568.675 84.0553L567.274 81.8301L560.248 85.6321L561.327 87.7756L568.675 84.0553Z" fill="#81EEE7"/>
<path d="M566.107 72.1175L558.437 74.3414L559.033 76.6644L567.002 74.5905L566.107 72.1175Z" fill="#81EEE7"/>
<path d="M605.674 -18.9338L609.446 -22.7073L588.612 -38.5201L585.379 -32.4106L564.185 -48.5828L562.21 -43.3717L586.636 -24.6838L590.587 -30.2543L605.674 -18.9338Z" fill="#81EEE7"/>
<path d="M467.972 120.369L510.766 109.61L478.997 134.2L474.626 137.422V128.427L467.972 120.369Z" fill="#81EEE7"/>
<path d="M510.799 109.61L487.086 140.4L480.538 132.95L510.799 109.61Z" fill="#B6F3EF"/>
<path d="M365.504 228.384L322.71 217.625L354.479 242.215L358.851 245.436V236.441L365.504 228.384Z" fill="#81EEE7"/>
<path d="M322.678 217.625L346.391 248.415L352.939 240.965L322.678 217.625Z" fill="#B6F3EF"/>
<path d="M460.557 209.525L457.812 206.779L472.971 195.274L475.323 199.719L490.742 187.953L492.18 191.744L474.408 205.341L471.533 201.288L460.557 209.525Z" fill="#81EEE7"/>
<path d="M514.554 222.669L511.809 219.924L526.968 208.419L529.32 212.864L544.74 201.098L546.177 204.889L528.405 218.486L525.531 214.433L514.554 222.669Z" fill="#81EEE7"/>
<path d="M305.08 134.631L301.308 130.857L322.143 115.045L325.376 121.154L346.569 104.982L348.545 110.193L324.118 128.881L320.167 123.31L305.08 134.631Z" fill="#81EEE7"/>
<path d="M494.3 245.971H455.275C454.248 242.012 456.618 237.97 460.575 236.943C462.349 236.479 464.235 236.695 465.861 237.543C467.003 231.054 473.187 226.717 479.673 227.86C486.087 228.992 490.41 235.06 489.38 241.498C491.919 241.524 494.034 243.446 494.3 245.971Z" fill="#81EEE7"/>
<path d="M344.085 194.097H298.761C297.565 189.501 300.323 184.805 304.917 183.608C306.978 183.073 309.167 183.32 311.056 184.305C312.396 176.77 319.589 171.749 327.121 173.092C334.548 174.416 339.552 181.444 338.373 188.898C341.319 188.929 343.777 191.16 344.088 194.094H344.085V194.097Z" fill="#81EEE7"/>
<path d="M594.594 187.881H549.27C548.075 183.285 550.832 178.589 555.426 177.393C557.487 176.857 559.676 177.104 561.565 178.089C562.905 170.554 570.099 165.533 577.63 166.876C585.057 168.2 590.061 175.228 588.882 182.683C591.828 182.713 594.286 184.945 594.597 187.878H594.594V187.881Z" fill="#81EEE7"/>
<path d="M411.889 246.112L424.298 230.785L404.35 232.568L411.889 246.112Z" fill="#81EEE7"/>
<path d="M457.155 169.8L467.533 156.983L450.849 158.473L457.155 169.8Z" fill="#81EEE7"/>
<path d="M401.052 119.67C401.052 119.67 401.042 119.674 401.038 119.678C393.477 123.557 390.492 132.836 394.369 140.401L421.792 126.345C417.905 118.774 408.621 115.787 401.052 119.672V119.67Z" fill="#81EEE7"/>
<path d="M532.433 132.937C532.433 132.937 532.425 132.94 532.422 132.943C526.491 135.986 524.15 143.264 527.191 149.198L548.701 138.173C545.652 132.234 538.37 129.891 532.433 132.939V132.937Z" fill="#81EEE7"/>
<path d="M505.529 162.704C502.06 162.706 499.251 165.52 499.252 168.988C499.254 172.457 502.065 175.268 505.532 175.268H505.535C509.003 175.266 511.811 172.452 511.81 168.984C511.808 165.514 508.995 162.704 505.529 162.704Z" fill="#81EEE7"/>
<path d="M358.557 148.693C353.802 148.695 349.95 152.553 349.952 157.308C349.954 162.064 353.808 165.918 358.561 165.918H358.566C363.321 165.916 367.171 162.058 367.169 157.302C367.167 152.544 363.311 148.693 358.557 148.693Z" fill="#81EEE7"/>
<path d="M385.726 201.751L413.713 193.928L401.329 173.112L381.342 194.419L385.726 201.751Z" fill="#81EEE7"/>
<path d="M416.81 166.973L415.175 165.22L407.505 172.64L409.476 174.38L416.81 166.973Z" fill="#81EEE7"/>
<path d="M415.834 176.015L417.235 178.24L424.261 174.438L423.182 172.295L415.834 176.015Z" fill="#81EEE7"/>
<path d="M418.402 187.953L426.072 185.729L425.476 183.406L417.507 185.48L418.402 187.953Z" fill="#81EEE7"/>
<path d="M589.778 211.884L561.79 219.707L574.175 240.523L594.161 219.216L589.778 211.884Z" fill="#81EEE7"/>
<path d="M558.693 246.662L560.328 248.415L567.998 240.995L566.027 239.255L558.693 246.662Z" fill="#81EEE7"/>
<path d="M559.669 237.62L558.269 235.395L551.243 239.197L552.322 241.341L559.669 237.62Z" fill="#81EEE7"/>
<path d="M557.102 225.682L549.432 227.906L550.028 230.229L557.996 228.155L557.102 225.682Z" fill="#81EEE7"/>
<path d="M596.67 134.631L600.442 130.857L579.607 115.045L576.374 121.154L555.181 104.982L553.205 110.193L577.631 128.881L581.583 123.31L596.67 134.631Z" fill="#81EEE7"/>
<path d="M499.975 -348.346L542.769 -359.105L511 -334.515L506.629 -331.294V-340.289L499.975 -348.346Z" fill="#81EEE7"/>
<path d="M542.802 -359.105L519.089 -328.315L512.541 -335.765L542.802 -359.105Z" fill="#B6F3EF"/>
<path d="M397.501 -240.331L354.707 -251.09L386.476 -226.5L390.847 -223.279V-232.274L397.501 -240.331Z" fill="#81EEE7"/>
<path d="M354.674 -251.09L378.387 -220.3L384.935 -227.751L354.674 -251.09Z" fill="#B6F3EF"/>
<path d="M492.556 -259.191L489.812 -261.936L504.97 -273.441L507.322 -268.996L522.742 -280.762L524.179 -276.971L506.407 -263.374L503.533 -267.427L492.556 -259.191Z" fill="#81EEE7"/>
<path d="M546.553 -246.046L543.809 -248.792L558.967 -260.296L561.319 -255.851L576.739 -267.618L578.177 -263.826L560.405 -250.23L557.53 -254.283L546.553 -246.046Z" fill="#81EEE7"/>
<path d="M337.08 -334.084L333.307 -337.858L354.142 -353.671L357.375 -347.561L378.569 -363.733L380.544 -358.522L356.118 -339.834L352.166 -345.405L337.08 -334.084Z" fill="#81EEE7"/>
<path d="M526.297 -222.744H487.272C486.245 -226.703 488.615 -230.745 492.572 -231.773C494.346 -232.236 496.232 -232.021 497.859 -231.173C499.001 -237.661 505.185 -241.998 511.67 -240.855C518.084 -239.724 522.408 -233.655 521.377 -227.217C523.916 -227.192 526.031 -225.27 526.297 -222.744Z" fill="#81EEE7"/>
<path d="M376.082 -274.619H330.758C329.563 -279.215 332.32 -283.911 336.914 -285.107C338.975 -285.643 341.164 -285.396 343.053 -284.41C344.393 -291.946 351.587 -296.967 359.118 -295.623C366.545 -294.299 371.549 -287.272 370.37 -279.817C373.317 -279.786 375.774 -277.555 376.085 -274.621H376.082V-274.619Z" fill="#81EEE7"/>
<path d="M626.594 -280.834H581.27C580.074 -285.43 582.831 -290.126 587.425 -291.323C589.487 -291.858 591.675 -291.611 593.565 -290.626C594.905 -298.161 602.098 -303.182 609.63 -301.839C617.056 -300.515 622.061 -293.487 620.882 -286.033C623.828 -286.002 626.286 -283.771 626.596 -280.837H626.594V-280.834Z" fill="#81EEE7"/>
<path d="M443.891 -222.604L456.3 -237.93L436.351 -236.148L443.891 -222.604Z" fill="#81EEE7"/>
<path d="M489.154 -298.915L499.532 -311.733L482.849 -310.242L489.154 -298.915Z" fill="#81EEE7"/>
<path d="M433.049 -349.045C433.049 -349.045 433.04 -349.041 433.036 -349.037C425.474 -345.158 422.489 -335.88 426.366 -328.315L453.789 -342.371C449.902 -349.941 440.618 -352.928 433.049 -349.043V-349.045Z" fill="#81EEE7"/>
<path d="M564.43 -335.778C564.43 -335.778 564.423 -335.775 564.42 -335.772C558.489 -332.729 556.147 -325.451 559.188 -319.517L580.698 -330.543C577.65 -336.481 570.367 -338.824 564.43 -335.777V-335.778Z" fill="#81EEE7"/>
<path d="M537.53 -306.011C534.062 -306.01 531.252 -303.196 531.254 -299.727C531.255 -296.259 534.066 -293.448 537.533 -293.448H537.536C541.005 -293.449 543.813 -296.263 543.811 -299.732C543.81 -303.202 540.997 -306.011 537.53 -306.011Z" fill="#81EEE7"/>
<path d="M390.557 -320.023C385.801 -320.021 381.949 -316.162 381.951 -311.407C381.953 -306.651 385.807 -302.797 390.561 -302.797H390.565C395.321 -302.799 399.171 -306.657 399.169 -311.413C399.167 -316.171 395.31 -320.023 390.557 -320.023Z" fill="#81EEE7"/>
<path d="M417.727 -266.964L445.714 -274.787L433.329 -295.603L413.343 -274.296L417.727 -266.964Z" fill="#81EEE7"/>
<path d="M448.811 -301.742L447.176 -303.495L439.506 -296.075L441.477 -294.335L448.811 -301.742Z" fill="#81EEE7"/>
<path d="M447.835 -292.7L449.236 -290.475L456.262 -294.277L455.182 -296.421L447.835 -292.7Z" fill="#81EEE7"/>
<path d="M450.402 -280.762L458.073 -282.986L457.477 -285.309L449.508 -283.235L450.402 -280.762Z" fill="#81EEE7"/>
<path d="M621.776 -256.832L593.789 -249.008L606.174 -228.192L626.16 -249.5L621.776 -256.832Z" fill="#81EEE7"/>
<path d="M590.692 -222.054L592.327 -220.3L599.997 -227.721L598.026 -229.461L590.692 -222.054Z" fill="#81EEE7"/>
<path d="M591.668 -231.095L590.268 -233.321L583.241 -229.519L584.321 -227.375L591.668 -231.095Z" fill="#81EEE7"/>
<path d="M589.101 -243.033L581.431 -240.809L582.026 -238.486L589.995 -240.56L589.101 -243.033Z" fill="#81EEE7"/>
<path d="M628.669 -334.084L632.441 -337.858L611.607 -353.671L608.374 -347.561L587.18 -363.733L585.204 -358.522L609.631 -339.834L613.582 -345.405L628.669 -334.084Z" fill="#81EEE7"/>
<path d="M490.968 -194.781L533.762 -205.54L501.993 -180.951L497.622 -177.729V-186.724L490.968 -194.781Z" fill="#81EEE7"/>
<path d="M533.794 -205.54L510.081 -174.75L503.534 -182.201L533.794 -205.54Z" fill="#B6F3EF"/>
<path d="M388.498 -86.7667L345.704 -97.5258L377.473 -72.936L381.844 -69.7142V-78.7094L388.498 -86.7667Z" fill="#81EEE7"/>
<path d="M345.671 -97.5259L369.384 -66.7356L375.932 -74.1861L345.671 -97.5259Z" fill="#B6F3EF"/>
<path d="M483.551 -105.626L480.807 -108.372L495.966 -119.876L498.318 -115.431L513.737 -127.198L515.175 -123.406L497.403 -109.81L494.528 -113.863L483.551 -105.626Z" fill="#81EEE7"/>
<path d="M537.549 -92.4814L534.804 -95.2268L549.963 -106.732L552.315 -102.287L567.735 -114.053L569.172 -110.262L551.4 -96.6649L548.525 -100.718L537.549 -92.4814Z" fill="#81EEE7"/>
<path d="M328.075 -180.52L324.303 -184.293L345.138 -200.106L348.37 -193.996L369.564 -210.169L371.54 -204.958L347.113 -186.27L343.162 -191.84L328.075 -180.52Z" fill="#81EEE7"/>
<path d="M517.294 -69.1792H478.27C477.242 -73.1385 479.613 -77.1805 483.57 -78.208C485.344 -78.6715 487.229 -78.4559 488.856 -77.608C489.998 -84.0967 496.182 -88.4332 502.668 -87.2907C509.082 -86.159 513.405 -80.0907 512.375 -73.6523C514.914 -73.6271 517.029 -71.705 517.294 -69.1792Z" fill="#81EEE7"/>
<path d="M367.08 -121.054H321.756C320.56 -125.65 323.318 -130.346 327.912 -131.542C329.973 -132.078 332.162 -131.831 334.051 -130.846C335.391 -138.381 342.584 -143.402 350.116 -142.058C357.542 -140.735 362.547 -133.707 361.368 -126.252C364.314 -126.222 366.772 -123.99 367.083 -121.057H367.08V-121.054Z" fill="#81EEE7"/>
<path d="M617.589 -127.269H572.265C571.069 -131.866 573.827 -136.562 578.421 -137.758C580.482 -138.294 582.671 -138.047 584.56 -137.061C585.9 -144.597 593.093 -149.617 600.625 -148.274C608.052 -146.95 613.056 -139.923 611.877 -132.468C614.823 -132.437 617.281 -130.206 617.592 -127.272H617.589V-127.269Z" fill="#81EEE7"/>
<path d="M434.884 -69.0391L447.293 -84.3652L427.345 -82.5828L434.884 -69.0391Z" fill="#81EEE7"/>
<path d="M480.15 -145.35L490.528 -158.168L473.844 -156.677L480.15 -145.35Z" fill="#81EEE7"/>
<path d="M424.045 -195.48C424.045 -195.48 424.035 -195.476 424.031 -195.473C416.47 -191.594 413.485 -182.315 417.362 -174.75L444.785 -188.806C440.898 -196.377 431.614 -199.363 424.045 -195.478V-195.48Z" fill="#81EEE7"/>
<path d="M555.428 -182.213C555.428 -182.213 555.42 -182.21 555.417 -182.207C549.486 -179.164 547.145 -171.886 550.186 -165.952L571.696 -176.978C568.647 -182.916 561.365 -185.259 555.428 -182.212V-182.213Z" fill="#81EEE7"/>
<path d="M528.523 -152.446C525.055 -152.445 522.245 -149.631 522.247 -146.162C522.249 -142.694 525.06 -139.883 528.526 -139.883H528.53C531.998 -139.885 534.806 -142.698 534.805 -146.167C534.803 -149.637 531.99 -152.446 528.523 -152.446Z" fill="#81EEE7"/>
<path d="M381.552 -166.458C376.797 -166.456 372.945 -162.598 372.947 -157.842C372.949 -153.086 376.803 -149.232 381.556 -149.232H381.561C386.316 -149.235 390.166 -153.093 390.164 -157.848C390.162 -162.606 386.306 -166.458 381.552 -166.458Z" fill="#81EEE7"/>
<path d="M408.724 -113.399L436.711 -121.223L424.326 -142.039L404.34 -120.731L408.724 -113.399Z" fill="#81EEE7"/>
<path d="M439.808 -148.177L438.173 -149.931L430.503 -142.51L432.474 -140.77L439.808 -148.177Z" fill="#81EEE7"/>
<path d="M438.832 -139.136L440.233 -136.91L447.259 -140.712L446.179 -142.856L438.832 -139.136Z" fill="#81EEE7"/>
<path d="M441.4 -127.198L449.07 -129.422L448.474 -131.745L440.505 -129.671L441.4 -127.198Z" fill="#81EEE7"/>
<path d="M612.773 -103.267L584.786 -95.4435L597.171 -74.6276L617.157 -95.9352L612.773 -103.267Z" fill="#81EEE7"/>
<path d="M581.689 -68.4891L583.324 -66.7354L590.994 -74.1559L589.023 -75.8961L581.689 -68.4891Z" fill="#81EEE7"/>
<path d="M582.665 -77.5305L581.265 -79.7557L574.239 -75.9537L575.318 -73.8102L582.665 -77.5305Z" fill="#81EEE7"/>
<path d="M580.098 -89.4683L572.428 -87.2445L573.023 -84.9214L580.992 -86.9953L580.098 -89.4683Z" fill="#81EEE7"/>
<path d="M619.664 -180.52L623.437 -184.293L602.602 -200.106L599.369 -193.996L578.176 -210.169L576.2 -204.958L600.626 -186.27L604.578 -191.84L619.664 -180.52Z" fill="#81EEE7"/>
<path d="M144.001 144.573L186.795 133.813L155.026 158.403L150.655 161.625V152.63L144.001 144.573Z" fill="#81EEE7"/>
<path d="M186.828 133.813L163.115 164.604L156.567 157.153L186.828 133.813Z" fill="#B6F3EF"/>
<path d="M41.5267 252.587L-1.26744 241.828L30.5018 266.418L34.8729 269.64V260.645L41.5267 252.587Z" fill="#81EEE7"/>
<path d="M-1.29961 241.828L22.4133 272.618L28.9611 265.168L-1.29961 241.828Z" fill="#B6F3EF"/>
<path d="M136.582 233.728L133.838 230.982L148.996 219.477L151.348 223.922L166.768 212.156L168.205 215.948L150.433 229.544L147.559 225.491L136.582 233.728Z" fill="#81EEE7"/>
<path d="M190.584 246.873L187.839 244.127L202.998 232.622L205.35 237.067L220.769 225.301L222.207 229.092L204.435 242.689L201.56 238.636L190.584 246.873Z" fill="#81EEE7"/>
<path d="M-18.8944 158.834L-22.6665 155.061L-1.83196 139.248L1.40095 145.357L22.5945 129.185L24.5702 134.396L0.143707 153.084L-3.80763 147.514L-18.8944 158.834Z" fill="#81EEE7"/>
<path d="M170.323 270.175H131.298C130.271 266.215 132.641 262.173 136.598 261.146C138.372 260.682 140.258 260.898 141.885 261.746C143.027 255.257 149.211 250.921 155.696 252.063C162.11 253.195 166.434 259.263 165.403 265.702C167.942 265.727 170.057 267.649 170.323 270.175Z" fill="#81EEE7"/>
<path d="M20.1105 218.3H-25.2135C-26.4092 213.704 -23.6517 209.008 -19.0577 207.812C-16.9965 207.276 -14.8077 207.523 -12.9185 208.508C-11.5786 200.973 -4.38523 195.952 3.14658 197.295C10.573 198.619 15.5775 205.647 14.3985 213.102C17.3447 213.132 19.8025 215.364 20.1132 218.297H20.1105V218.3Z" fill="#81EEE7"/>
<path d="M270.62 212.084H225.296C224.1 207.488 226.858 202.792 231.452 201.596C233.513 201.06 235.701 201.307 237.591 202.293C238.931 194.757 246.124 189.736 253.656 191.08C261.082 192.404 266.087 199.431 264.908 206.886C267.854 206.917 270.312 209.148 270.622 212.082H270.62V212.084Z" fill="#81EEE7"/>
<path d="M87.9166 270.315L100.326 254.989L80.3773 256.771L87.9166 270.315Z" fill="#81EEE7"/>
<path d="M133.18 194.003L143.558 181.186L126.875 182.676L133.18 194.003Z" fill="#81EEE7"/>
<path d="M77.0752 143.874C77.0752 143.874 77.0655 143.877 77.0616 143.881C69.5002 147.76 66.515 157.039 70.3923 164.604L97.815 150.548C93.9281 142.977 84.6443 139.991 77.0752 143.875V143.874Z" fill="#81EEE7"/>
<path d="M208.456 157.141C208.456 157.141 208.449 157.144 208.446 157.147C202.514 160.189 200.173 167.467 203.214 173.401L224.724 162.376C221.676 156.437 214.393 154.095 208.456 157.142V157.141Z" fill="#81EEE7"/>
<path d="M181.556 186.907C178.088 186.909 175.278 189.723 175.28 193.191C175.281 196.66 178.092 199.471 181.559 199.471H181.562C185.031 199.469 187.839 196.655 187.837 193.187C187.836 189.717 185.023 186.907 181.556 186.907Z" fill="#81EEE7"/>
<path d="M34.5827 172.896C29.8272 172.898 25.9751 176.756 25.9771 181.512C25.9792 186.267 29.8335 190.121 34.5869 190.121H34.5911C39.3466 190.119 43.1967 186.261 43.1946 181.505C43.1925 176.748 39.3362 172.896 34.5827 172.896Z" fill="#81EEE7"/>
<path d="M61.7529 225.955L89.7403 218.131L77.3555 197.316L57.3689 218.623L61.7529 225.955Z" fill="#81EEE7"/>
<path d="M92.8371 191.177L91.2021 189.423L83.5321 196.844L85.5032 198.584L92.8371 191.177Z" fill="#81EEE7"/>
<path d="M91.861 200.219L93.2616 202.444L100.288 198.642L99.2083 196.498L91.861 200.219Z" fill="#81EEE7"/>
<path d="M94.4285 212.156L102.099 209.933L101.503 207.61L93.534 209.683L94.4285 212.156Z" fill="#81EEE7"/>
<path d="M265.804 236.086L237.817 243.91L250.202 264.726L270.189 243.418L265.804 236.086Z" fill="#81EEE7"/>
<path d="M234.72 270.865L236.355 272.618L244.025 265.198L242.054 263.458L234.72 270.865Z" fill="#81EEE7"/>
<path d="M235.696 261.823L234.296 259.598L227.27 263.4L228.349 265.544L235.696 261.823Z" fill="#81EEE7"/>
<path d="M233.129 249.885L225.459 252.109L226.055 254.432L234.023 252.358L233.129 249.885Z" fill="#81EEE7"/>
<path d="M272.695 158.834L276.467 155.061L255.633 139.248L252.4 145.357L231.206 129.185L229.23 134.396L253.657 153.084L257.608 147.514L272.695 158.834Z" fill="#81EEE7"/>
<path d="M134.991 298.137L177.786 287.378L146.016 311.968L141.645 315.19V306.195L134.991 298.137Z" fill="#81EEE7"/>
<path d="M177.818 287.378L154.105 318.169L147.557 310.718L177.818 287.378Z" fill="#B6F3EF"/>
<path d="M32.524 406.152L-10.2701 395.393L21.4991 419.983L25.8702 423.204V414.209L32.524 406.152Z" fill="#81EEE7"/>
<path d="M-10.3025 395.393L13.4104 426.183L19.9582 418.732L-10.3025 395.393Z" fill="#B6F3EF"/>
<path d="M127.577 387.292L124.833 384.547L139.992 373.042L142.344 377.487L157.763 365.721L159.201 369.512L141.429 383.109L138.554 379.056L127.577 387.292Z" fill="#81EEE7"/>
<path d="M181.575 400.437L178.83 397.692L193.989 386.187L196.341 390.632L211.761 378.866L213.198 382.657L195.426 396.254L192.551 392.201L181.575 400.437Z" fill="#81EEE7"/>
<path d="M-27.8989 312.399L-31.671 308.626L-10.8365 292.813L-7.60358 298.922L13.59 282.75L15.5656 287.961L-8.86082 306.649L-12.8122 301.078L-27.8989 312.399Z" fill="#81EEE7"/>
<path d="M161.32 423.739H122.296C121.268 419.78 123.639 415.738 127.596 414.711C129.37 414.247 131.255 414.463 132.882 415.311C134.024 408.822 140.208 404.485 146.694 405.628C153.108 406.76 157.431 412.828 156.401 419.266C158.94 419.292 161.055 421.214 161.32 423.739Z" fill="#81EEE7"/>
<path d="M11.1059 371.865H-34.218C-35.4137 367.269 -32.6562 362.573 -28.0622 361.376C-26.001 360.841 -23.8122 361.088 -21.923 362.073C-20.5831 354.538 -13.3898 349.517 -5.85795 350.86C1.56844 352.184 6.57299 359.212 5.39398 366.666C8.34013 366.697 10.798 368.928 11.1087 371.862H11.1059V371.865Z" fill="#81EEE7"/>
<path d="M261.615 365.649H216.291C215.095 361.053 217.853 356.357 222.447 355.161C224.508 354.625 226.697 354.872 228.586 355.857C229.926 348.322 237.119 343.301 244.651 344.644C252.078 345.968 257.082 352.996 255.903 360.451C258.849 360.481 261.307 362.713 261.618 365.646H261.615V365.649Z" fill="#81EEE7"/>
<path d="M78.9099 423.879L91.3192 408.553L71.3706 410.336L78.9099 423.879Z" fill="#81EEE7"/>
<path d="M124.176 347.568L134.554 334.751L117.87 336.241L124.176 347.568Z" fill="#81EEE7"/>
<path d="M68.0728 297.438C68.0728 297.438 68.0631 297.442 68.0593 297.446C60.4978 301.325 57.5126 310.603 61.3899 318.168L88.8127 304.113C84.9257 296.542 75.6419 293.555 68.0728 297.44V297.438Z" fill="#81EEE7"/>
<path d="M199.454 310.705C199.454 310.705 199.446 310.708 199.443 310.711C193.512 313.754 191.171 321.032 194.212 326.966L215.722 315.941C212.673 310.002 205.391 307.66 199.454 310.707V310.705Z" fill="#81EEE7"/>
<path d="M296.144 239.473C296.144 239.473 296.137 239.477 296.134 239.479C290.203 242.522 287.861 249.8 290.902 255.734L312.413 244.709C309.364 238.77 302.082 236.428 296.144 239.475V239.473Z" fill="#81EEE7"/>
<path d="M172.549 340.472C169.081 340.474 166.271 343.288 166.273 346.756C166.275 350.225 169.086 353.036 172.552 353.036H172.556C176.024 353.034 178.832 350.22 178.83 346.752C178.829 343.282 176.016 340.472 172.549 340.472Z" fill="#81EEE7"/>
<path d="M25.5782 326.46C20.8227 326.463 16.9705 330.321 16.9726 335.076C16.9747 339.832 20.8289 343.686 25.5824 343.686H25.5865C30.342 343.684 34.1922 339.826 34.1901 335.07C34.188 330.312 30.3317 326.46 25.5782 326.46Z" fill="#81EEE7"/>
<path d="M52.75 379.519L80.7374 371.696L68.3525 350.88L48.3659 372.187L52.75 379.519Z" fill="#81EEE7"/>
<path d="M83.8342 344.741L82.1992 342.988L74.5292 350.408L76.5002 352.148L83.8342 344.741Z" fill="#81EEE7"/>
<path d="M82.8581 353.783L84.2587 356.008L91.2847 352.206L90.2054 350.062L82.8581 353.783Z" fill="#81EEE7"/>
<path d="M85.4256 365.721L93.0956 363.497L92.4998 361.174L84.5311 363.248L85.4256 365.721Z" fill="#81EEE7"/>
<path d="M256.799 389.651L228.812 397.475L241.197 418.291L261.183 396.984L256.799 389.651Z" fill="#81EEE7"/>
<path d="M225.715 424.43L227.35 426.183L235.02 418.763L233.049 417.023L225.715 424.43Z" fill="#81EEE7"/>
<path d="M226.691 415.388L225.291 413.163L218.265 416.965L219.344 419.108L226.691 415.388Z" fill="#81EEE7"/>
<path d="M224.124 403.45L216.454 405.674L217.05 407.997L225.018 405.923L224.124 403.45Z" fill="#81EEE7"/>
<path d="M263.693 312.399L267.465 308.626L246.63 292.813L243.397 298.922L222.204 282.75L220.228 287.961L244.655 306.649L248.606 301.078L263.693 312.399Z" fill="#81EEE7"/>
<path d="M453.049 283.425L495.844 272.666L464.074 297.256L459.703 300.478V291.482L453.049 283.425Z" fill="#81EEE7"/>
<path d="M495.876 272.666L472.163 303.456L465.615 296.006L495.876 272.666Z" fill="#B6F3EF"/>
<path d="M350.573 391.44L307.779 380.681L339.548 405.27L343.919 408.492V399.497L350.573 391.44Z" fill="#81EEE7"/>
<path d="M307.747 380.681L331.459 411.471L338.007 404.02L307.747 380.681Z" fill="#B6F3EF"/>
<path d="M445.629 372.58L442.885 369.835L458.043 358.33L460.395 362.775L475.815 351.009L477.252 354.8L459.481 368.397L456.606 364.344L445.629 372.58Z" fill="#81EEE7"/>
<path d="M499.631 385.725L496.886 382.98L512.045 371.475L514.397 375.92L529.817 364.153L531.254 367.945L513.482 381.542L510.607 377.489L499.631 385.725Z" fill="#81EEE7"/>
<path d="M290.153 297.687L286.381 293.913L307.215 278.1L310.448 284.21L331.642 268.038L333.617 273.249L309.191 291.937L305.24 286.366L290.153 297.687Z" fill="#81EEE7"/>
<path d="M479.37 409.027H440.345C439.318 405.068 441.688 401.026 445.646 399.998C447.42 399.535 449.305 399.75 450.932 400.598C452.074 394.11 458.258 389.773 464.743 390.916C471.157 392.047 475.481 398.116 474.45 404.554C476.989 404.579 479.104 406.501 479.37 409.027Z" fill="#81EEE7"/>
<path d="M329.158 357.153H283.834C282.638 352.556 285.395 347.86 289.989 346.664C292.051 346.128 294.239 346.375 296.129 347.361C297.469 339.825 304.662 334.805 312.194 336.148C319.62 337.472 324.625 344.499 323.446 351.954C326.392 351.985 328.85 354.216 329.16 357.15H329.158V357.153Z" fill="#81EEE7"/>
<path d="M579.667 350.937H534.343C533.147 346.341 535.905 341.645 540.499 340.448C542.56 339.913 544.749 340.16 546.638 341.145C547.978 333.61 555.171 328.589 562.703 329.932C570.129 331.256 575.134 338.284 573.955 345.739C576.901 345.769 579.359 348 579.67 350.934H579.667V350.937Z" fill="#81EEE7"/>
<path d="M396.964 409.167L409.373 393.841L389.424 395.623L396.964 409.167Z" fill="#81EEE7"/>
<path d="M442.227 332.856L452.605 320.038L435.922 321.529L442.227 332.856Z" fill="#81EEE7"/>
<path d="M386.122 282.726C386.122 282.726 386.113 282.73 386.109 282.734C378.547 286.613 375.562 295.891 379.439 303.456L406.862 289.401C402.975 281.83 393.691 278.843 386.122 282.728V282.726Z" fill="#81EEE7"/>
<path d="M517.503 295.993C517.503 295.993 517.496 295.996 517.493 295.999C511.562 299.042 509.22 306.32 512.261 312.254L533.772 301.228C530.723 295.29 523.441 292.947 517.503 295.995V295.993Z" fill="#81EEE7"/>
<path d="M490.603 325.76C487.135 325.761 484.325 328.575 484.327 332.044C484.328 335.512 487.139 338.323 490.606 338.323H490.609C494.078 338.322 496.886 335.508 496.884 332.039C496.883 328.569 494.07 325.76 490.603 325.76Z" fill="#81EEE7"/>
<path d="M343.63 311.748C338.874 311.75 335.022 315.608 335.024 320.364C335.026 325.12 338.881 328.974 343.634 328.974H343.638C348.394 328.972 352.244 325.113 352.242 320.358C352.24 315.6 348.383 311.748 343.63 311.748Z" fill="#81EEE7"/>
<path d="M370.799 364.807L398.786 356.984L386.402 336.168L366.415 357.475L370.799 364.807Z" fill="#81EEE7"/>
<path d="M401.883 330.029L400.248 328.276L392.578 335.696L394.549 337.436L401.883 330.029Z" fill="#81EEE7"/>
<path d="M400.907 339.071L402.308 341.296L409.334 337.494L408.254 335.351L400.907 339.071Z" fill="#81EEE7"/>
<path d="M403.475 351.009L411.145 348.785L410.549 346.462L402.58 348.536L403.475 351.009Z" fill="#81EEE7"/>
<path d="M574.851 374.939L546.863 382.763L559.248 403.579L579.235 382.271L574.851 374.939Z" fill="#81EEE7"/>
<path d="M543.766 409.717L545.401 411.471L553.071 404.05L551.1 402.31L543.766 409.717Z" fill="#81EEE7"/>
<path d="M544.742 400.676L543.342 398.451L536.316 402.253L537.395 404.396L544.742 400.676Z" fill="#81EEE7"/>
<path d="M542.175 388.738L534.505 390.962L535.101 393.285L543.069 391.211L542.175 388.738Z" fill="#81EEE7"/>
<path d="M581.742 297.687L585.514 293.913L564.68 278.1L561.447 284.21L540.253 268.038L538.278 273.249L562.704 291.937L566.655 286.366L581.742 297.687Z" fill="#81EEE7"/>
<path d="M444.04 436.99L486.834 426.231L455.065 450.821L450.694 454.042V445.047L444.04 436.99Z" fill="#81EEE7"/>
<path d="M486.866 426.231L463.154 457.021L456.606 449.571L486.866 426.231Z" fill="#B6F3EF"/>
<path d="M341.572 545.004L298.778 534.245L330.547 558.835L334.918 562.057V553.062L341.572 545.004Z" fill="#81EEE7"/>
<path d="M298.746 534.245L322.459 565.036L329.006 557.585L298.746 534.245Z" fill="#B6F3EF"/>
<path d="M436.625 526.145L433.88 523.399L449.039 511.895L451.391 516.34L466.81 504.573L468.248 508.365L450.476 521.961L447.601 517.909L436.625 526.145Z" fill="#81EEE7"/>
<path d="M490.622 539.29L487.878 536.544L503.036 525.039L505.388 529.484L520.808 517.718L522.245 521.509L504.473 535.106L501.599 531.053L490.622 539.29Z" fill="#81EEE7"/>
<path d="M281.148 451.252L277.376 447.478L298.211 431.665L301.444 437.775L322.637 421.602L324.613 426.814L300.186 445.501L296.235 439.931L281.148 451.252Z" fill="#81EEE7"/>
<path d="M470.368 562.592H431.343C430.316 558.633 432.686 554.591 436.643 553.563C438.417 553.1 440.303 553.315 441.929 554.163C443.071 547.674 449.255 543.338 455.741 544.48C462.155 545.612 466.478 551.68 465.448 558.119C467.987 558.144 470.102 560.066 470.368 562.592Z" fill="#81EEE7"/>
<path d="M320.153 510.717H274.829C273.633 506.121 276.391 501.425 280.985 500.229C283.046 499.693 285.235 499.94 287.124 500.925C288.464 493.39 295.657 488.369 303.189 489.713C310.616 491.037 315.62 498.064 314.441 505.519C317.387 505.549 319.845 507.781 320.156 510.714H320.153V510.717Z" fill="#81EEE7"/>
<path d="M570.662 504.502H525.338C524.143 499.905 526.9 495.209 531.494 494.013C533.555 493.477 535.744 493.724 537.633 494.71C538.973 487.174 546.167 482.154 553.698 483.497C561.125 484.821 566.129 491.848 564.95 499.303C567.896 499.334 570.354 501.565 570.665 504.499H570.662V504.502Z" fill="#81EEE7"/>
<path d="M387.957 562.732L400.366 547.406L380.418 549.188L387.957 562.732Z" fill="#81EEE7"/>
<path d="M433.223 486.421L443.601 473.603L426.917 475.094L433.223 486.421Z" fill="#81EEE7"/>
<path d="M284.398 416.268L294.776 403.45L278.092 404.941L284.398 416.268Z" fill="#81EEE7"/>
<path d="M377.12 436.291C377.12 436.291 377.11 436.295 377.106 436.298C369.545 440.178 366.56 449.456 370.437 457.021L397.86 442.965C393.973 435.394 384.689 432.408 377.12 436.293V436.291Z" fill="#81EEE7"/>
<path d="M508.501 449.558C508.501 449.558 508.493 449.561 508.49 449.564C502.559 452.607 500.218 459.885 503.259 465.818L524.769 454.793C521.72 448.855 514.438 446.512 508.501 449.559V449.558Z" fill="#81EEE7"/>
<path d="M481.597 479.325C478.128 479.326 475.319 482.14 475.32 485.609C475.322 489.077 478.133 491.888 481.6 491.888H481.603C485.071 491.887 487.879 489.073 487.878 485.604C487.876 482.134 485.064 479.325 481.597 479.325Z" fill="#81EEE7"/>
<path d="M334.625 465.313C329.87 465.315 326.018 469.173 326.02 473.929C326.022 478.685 329.876 482.539 334.63 482.539H334.634C339.389 482.536 343.239 478.678 343.237 473.923C343.235 469.165 339.379 465.313 334.625 465.313Z" fill="#81EEE7"/>
<path d="M361.796 518.372L389.783 510.548L377.399 489.732L357.412 511.04L361.796 518.372Z" fill="#81EEE7"/>
<path d="M392.88 483.594L391.245 481.84L383.575 489.261L385.546 491.001L392.88 483.594Z" fill="#81EEE7"/>
<path d="M391.904 492.635L393.305 494.861L400.331 491.059L399.252 488.915L391.904 492.635Z" fill="#81EEE7"/>
<path d="M394.472 504.573L402.142 502.349L401.546 500.026L393.577 502.1L394.472 504.573Z" fill="#81EEE7"/>
<path d="M565.845 528.504L537.858 536.328L550.243 557.143L570.229 535.836L565.845 528.504Z" fill="#81EEE7"/>
<path d="M534.761 563.282L536.396 565.036L544.066 557.615L542.095 555.875L534.761 563.282Z" fill="#81EEE7"/>
<path d="M535.737 554.241L534.337 552.015L527.311 555.817L528.39 557.961L535.737 554.241Z" fill="#81EEE7"/>
<path d="M533.17 542.303L525.5 544.527L526.096 546.85L534.064 544.776L533.17 542.303Z" fill="#81EEE7"/>
<path d="M572.74 451.252L576.512 447.478L555.677 431.665L552.444 437.775L531.251 421.602L529.275 426.814L553.702 445.501L557.653 439.931L572.74 451.252Z" fill="#81EEE7"/>
<path d="M124.084 457.436L166.878 446.676L135.109 471.266L130.738 474.488V465.493L124.084 457.436Z" fill="#81EEE7"/>
<path d="M166.91 446.676L143.198 477.467L136.65 470.016L166.91 446.676Z" fill="#B6F3EF"/>
<path d="M21.6097 565.45L-21.1845 554.691L10.5848 579.281L14.9559 582.503V573.508L21.6097 565.45Z" fill="#81EEE7"/>
<path d="M-21.2169 554.691L2.49598 585.481L9.04381 578.031L-21.2169 554.691Z" fill="#B6F3EF"/>
<path d="M116.662 546.591L113.917 543.845L129.076 532.34L131.428 536.786L146.848 525.019L148.285 528.811L130.513 542.407L127.638 538.354L116.662 546.591Z" fill="#81EEE7"/>
<path d="M170.661 559.735L167.917 556.99L183.075 545.485L185.428 549.93L200.847 538.164L202.285 541.955L184.513 555.552L181.638 551.499L170.661 559.735Z" fill="#81EEE7"/>
<path d="M-38.8124 471.697L-42.5845 467.924L-21.7499 452.111L-18.517 458.22L2.67652 442.048L4.65218 447.259L-19.7743 465.947L-23.7256 460.377L-38.8124 471.697Z" fill="#81EEE7"/>
<path d="M150.405 583.038H111.38C110.353 579.078 112.723 575.036 116.68 574.009C118.454 573.545 120.34 573.761 121.967 574.609C123.109 568.12 129.293 563.784 135.778 564.926C142.192 566.058 146.516 572.126 145.485 578.565C148.024 578.59 150.139 580.512 150.405 583.038Z" fill="#81EEE7"/>
<path d="M0.190369 531.163H-45.1336C-46.3293 526.567 -43.5718 521.871 -38.9778 520.675C-36.9166 520.139 -34.7278 520.386 -32.8386 521.371C-31.4987 513.836 -24.3053 508.815 -16.7735 510.159C-9.34714 511.482 -4.34258 518.51 -5.5216 525.965C-2.57545 525.995 -0.117561 528.227 0.193142 531.16H0.190369V531.163Z" fill="#81EEE7"/>
<path d="M250.702 524.947H205.378C204.182 520.351 206.94 515.655 211.534 514.459C213.595 513.923 215.783 514.17 217.673 515.156C219.013 507.62 226.206 502.599 233.738 503.943C241.164 505.267 246.169 512.294 244.99 519.749C247.936 519.779 250.394 522.011 250.704 524.945H250.702V524.947Z" fill="#81EEE7"/>
<path d="M67.9986 583.178L80.4079 567.852L60.4593 569.634L67.9986 583.178Z" fill="#81EEE7"/>
<path d="M113.262 506.866L123.64 494.049L106.957 495.539L113.262 506.866Z" fill="#81EEE7"/>
<path d="M57.1572 456.737C57.1572 456.737 57.1475 456.741 57.1437 456.744C49.5823 460.624 46.5971 469.902 50.4743 477.467L77.8971 463.411C74.0101 455.84 64.7263 452.854 57.1572 456.739V456.737Z" fill="#81EEE7"/>
<path d="M188.538 470.004C188.538 470.004 188.531 470.007 188.528 470.01C182.597 473.052 180.255 480.33 183.296 486.264L204.806 475.239C201.758 469.3 194.475 466.958 188.538 470.005V470.004Z" fill="#81EEE7"/>
<path d="M161.638 499.77C158.17 499.772 155.36 502.586 155.362 506.054C155.363 509.523 158.174 512.334 161.641 512.334H161.644C165.113 512.332 167.921 509.518 167.919 506.05C167.918 502.58 165.105 499.77 161.638 499.77Z" fill="#81EEE7"/>
<path d="M14.6648 485.759C9.90926 485.761 6.05708 489.619 6.05916 494.375C6.06123 499.13 9.91549 502.984 14.6689 502.984H14.6731C19.4286 502.982 23.2787 499.124 23.2766 494.368C23.2746 489.611 19.4182 485.759 14.6648 485.759Z" fill="#81EEE7"/>
<path d="M41.8336 538.818L69.8209 530.994L57.4361 510.178L37.4495 531.486L41.8336 538.818Z" fill="#81EEE7"/>
<path d="M72.9178 504.04L71.2828 502.286L63.6127 509.707L65.5838 511.447L72.9178 504.04Z" fill="#81EEE7"/>
<path d="M71.9417 513.081L73.3423 515.307L80.3683 511.505L79.289 509.361L71.9417 513.081Z" fill="#81EEE7"/>
<path d="M74.5092 525.019L82.1792 522.795L81.5833 520.472L73.6147 522.546L74.5092 525.019Z" fill="#81EEE7"/>
<path d="M245.887 548.95L217.9 556.773L230.285 577.589L250.271 556.282L245.887 548.95Z" fill="#81EEE7"/>
<path d="M214.803 583.728L216.438 585.481L224.108 578.061L222.137 576.321L214.803 583.728Z" fill="#81EEE7"/>
<path d="M215.779 574.687L214.378 572.461L207.352 576.263L208.432 578.407L215.779 574.687Z" fill="#81EEE7"/>
<path d="M213.212 562.748L205.542 564.972L206.137 567.295L214.106 565.221L213.212 562.748Z" fill="#81EEE7"/>
<path d="M252.777 471.697L256.549 467.924L235.715 452.111L232.482 458.22L211.288 442.048L209.312 447.259L233.739 465.947L237.69 460.377L252.777 471.697Z" fill="#81EEE7"/>
<path d="M115.072 611L157.866 600.241L126.097 624.831L121.726 628.053V619.058L115.072 611Z" fill="#81EEE7"/>
<path d="M157.899 600.241L134.186 631.032L127.638 623.581L157.899 600.241Z" fill="#B6F3EF"/>
<path d="M12.6045 719.015L-30.1896 708.256L1.57963 732.846L5.95074 736.067V727.072L12.6045 719.015Z" fill="#81EEE7"/>
<path d="M-30.222 708.256L-6.50914 739.046L0.0386848 731.595L-30.222 708.256Z" fill="#B6F3EF"/>
<path d="M107.659 700.156L104.915 697.41L120.074 685.905L122.426 690.35L137.845 678.584L139.283 682.375L121.511 695.972L118.636 691.919L107.659 700.156Z" fill="#81EEE7"/>
<path d="M161.657 713.3L158.912 710.555L174.071 699.05L176.423 703.495L191.843 691.729L193.28 695.52L175.508 709.117L172.633 705.064L161.657 713.3Z" fill="#81EEE7"/>
<path d="M-47.8169 625.262L-51.589 621.488L-30.7545 605.676L-27.5215 611.785L-6.32801 595.613L-4.35234 600.824L-28.7788 619.512L-32.7301 613.941L-47.8169 625.262Z" fill="#81EEE7"/>
<path d="M141.4 736.603H102.375C101.348 732.643 103.719 728.601 107.676 727.574C109.45 727.11 111.335 727.326 112.962 728.174C114.104 721.685 120.288 717.348 126.774 718.491C133.187 719.623 137.511 725.691 136.48 732.129C139.019 732.155 141.135 734.077 141.4 736.603Z" fill="#81EEE7"/>
<path d="M-8.81203 684.728H-54.136C-55.3317 680.132 -52.5742 675.436 -47.9802 674.239C-45.919 673.704 -43.7302 673.951 -41.841 674.936C-40.5011 667.401 -33.3077 662.38 -25.7759 663.723C-18.3495 665.047 -13.345 672.074 -14.524 679.529C-11.5779 679.56 -9.11996 681.791 -8.80925 684.725H-8.81203V684.728Z" fill="#81EEE7"/>
<path d="M241.697 678.512H196.373C195.177 673.916 197.935 669.22 202.529 668.024C204.59 667.488 206.779 667.735 208.668 668.72C210.008 661.185 217.201 656.164 224.733 657.507C232.16 658.831 237.164 665.859 235.985 673.314C238.931 673.344 241.389 675.576 241.7 678.509H241.697V678.512Z" fill="#81EEE7"/>
<path d="M58.992 736.742L71.4012 721.416L51.4526 723.199L58.992 736.742Z" fill="#81EEE7"/>
<path d="M104.258 660.431L114.636 647.614L97.9522 649.104L104.258 660.431Z" fill="#81EEE7"/>
<path d="M48.1527 610.301C48.1527 610.301 48.143 610.305 48.1392 610.309C40.5777 614.188 37.5926 623.466 41.4698 631.031L68.8925 616.976C65.0056 609.405 55.7218 606.418 48.1527 610.303V610.301Z" fill="#81EEE7"/>
<path d="M179.536 623.568C179.536 623.568 179.528 623.571 179.525 623.574C173.594 626.617 171.253 633.895 174.294 639.829L195.804 628.804C192.755 622.865 185.473 620.523 179.536 623.57V623.568Z" fill="#81EEE7"/>
<path d="M152.631 653.335C149.163 653.337 146.354 656.151 146.355 659.619C146.357 663.088 149.168 665.898 152.635 665.898H152.638C156.106 665.897 158.914 663.083 158.913 659.615C158.911 656.144 156.098 653.335 152.631 653.335Z" fill="#81EEE7"/>
<path d="M5.66025 639.324C0.904732 639.326 -2.94744 643.184 -2.94537 647.939C-2.94329 652.695 0.910961 656.549 5.6644 656.549H5.66856C10.4241 656.547 14.2742 652.689 14.2721 647.933C14.27 643.175 10.4137 639.324 5.66025 639.324Z" fill="#81EEE7"/>
<path d="M32.8327 692.382L60.8201 684.559L48.4352 663.743L28.4487 685.05L32.8327 692.382Z" fill="#81EEE7"/>
<path d="M63.9169 657.604L62.2819 655.851L54.6119 663.271L56.5829 665.011L63.9169 657.604Z" fill="#81EEE7"/>
<path d="M62.9408 666.646L64.3414 668.871L71.3674 665.069L70.2881 662.926L62.9408 666.646Z" fill="#81EEE7"/>
<path d="M65.5083 678.584L73.1784 676.36L72.5825 674.037L64.6138 676.111L65.5083 678.584Z" fill="#81EEE7"/>
<path d="M236.882 702.515L208.895 710.338L221.28 731.154L241.266 709.847L236.882 702.515Z" fill="#81EEE7"/>
<path d="M205.798 737.293L207.433 739.046L215.103 731.626L213.132 729.886L205.798 737.293Z" fill="#81EEE7"/>
<path d="M206.774 728.251L205.373 726.026L198.347 729.828L199.427 731.972L206.774 728.251Z" fill="#81EEE7"/>
<path d="M204.206 716.313L196.536 718.537L197.132 720.86L205.101 718.786L204.206 716.313Z" fill="#81EEE7"/>
<path d="M243.772 625.262L247.545 621.488L226.71 605.676L223.477 611.785L202.284 595.613L200.308 600.824L224.734 619.512L228.686 613.941L243.772 625.262Z" fill="#81EEE7"/>
<path d="M433.119 596.288L475.913 585.529L444.144 610.119L439.773 613.341V604.346L433.119 596.288Z" fill="#81EEE7"/>
<path d="M475.945 585.529L452.233 616.319L445.685 608.869L475.945 585.529Z" fill="#B6F3EF"/>
<path d="M330.647 704.303L287.853 693.544L319.622 718.134L323.993 721.355V712.36L330.647 704.303Z" fill="#81EEE7"/>
<path d="M287.82 693.544L311.533 724.334L318.081 716.884L287.82 693.544Z" fill="#B6F3EF"/>
<path d="M425.705 685.443L422.96 682.698L438.119 671.193L440.471 675.638L455.891 663.872L457.328 667.663L439.556 681.26L436.681 677.207L425.705 685.443Z" fill="#81EEE7"/>
<path d="M479.706 698.588L476.962 695.843L492.12 684.338L494.472 688.783L509.892 677.017L511.33 680.808L493.558 694.405L490.683 690.352L479.706 698.588Z" fill="#81EEE7"/>
<path d="M270.228 610.55L266.456 606.776L287.291 590.964L290.524 597.073L311.717 580.901L313.693 586.112L289.266 604.8L285.315 599.229L270.228 610.55Z" fill="#81EEE7"/>
<path d="M459.445 721.89H420.421C419.393 717.931 421.764 713.889 425.721 712.861C427.495 712.398 429.38 712.614 431.007 713.462C432.149 706.973 438.333 702.636 444.819 703.779C451.233 704.911 455.556 710.979 454.526 717.417C457.065 717.443 459.18 719.365 459.445 721.89Z" fill="#81EEE7"/>
<path d="M309.233 670.016H263.909C262.714 665.42 265.471 660.724 270.065 659.527C272.126 658.992 274.315 659.239 276.204 660.224C277.544 652.689 284.737 647.668 292.269 649.011C299.696 650.335 304.7 657.362 303.521 664.817C306.467 664.848 308.925 667.079 309.236 670.013H309.233V670.016Z" fill="#81EEE7"/>
<path d="M559.742 663.8H514.418C513.223 659.204 515.98 654.508 520.574 653.312C522.635 652.776 524.824 653.023 526.713 654.008C528.053 646.473 535.247 641.452 542.778 642.796C550.205 644.119 555.209 651.147 554.03 658.602C556.976 658.632 559.434 660.864 559.745 663.797H559.742V663.8Z" fill="#81EEE7"/>
<path d="M377.039 722.031L389.448 706.704L369.5 708.487L377.039 722.031Z" fill="#81EEE7"/>
<path d="M422.303 645.719L432.681 632.902L415.997 634.392L422.303 645.719Z" fill="#81EEE7"/>
<path d="M366.198 595.589C366.198 595.589 366.188 595.593 366.184 595.597C358.623 599.476 355.638 608.755 359.515 616.32L386.938 602.264C383.051 594.693 373.767 591.706 366.198 595.591V595.589Z" fill="#81EEE7"/>
<path d="M497.579 608.856C497.579 608.856 497.571 608.859 497.568 608.862C491.637 611.905 489.296 619.183 492.337 625.117L513.847 614.092C510.798 608.153 503.516 605.811 497.579 608.858V608.856Z" fill="#81EEE7"/>
<path d="M470.679 638.623C467.21 638.625 464.401 641.439 464.402 644.907C464.404 648.376 467.215 651.186 470.682 651.186H470.685C474.153 651.185 476.961 648.371 476.96 644.903C476.958 641.432 474.146 638.623 470.679 638.623Z" fill="#81EEE7"/>
<path d="M323.705 624.611C318.95 624.614 315.098 628.472 315.1 633.227C315.102 637.983 318.956 641.837 323.71 641.837H323.714C328.469 641.835 332.319 637.977 332.317 633.221C332.315 628.463 328.459 624.611 323.705 624.611Z" fill="#81EEE7"/>
<path d="M350.875 677.671L378.862 669.847L366.478 649.031L346.491 670.339L350.875 677.671Z" fill="#81EEE7"/>
<path d="M381.959 642.893L380.324 641.139L372.654 648.56L374.625 650.3L381.959 642.893Z" fill="#81EEE7"/>
<path d="M380.983 651.934L382.384 654.159L389.41 650.357L388.331 648.214L380.983 651.934Z" fill="#81EEE7"/>
<path d="M383.551 663.872L391.221 661.648L390.625 659.325L382.656 661.399L383.551 663.872Z" fill="#81EEE7"/>
<path d="M554.927 687.802L526.939 695.626L539.324 716.442L559.311 695.134L554.927 687.802Z" fill="#81EEE7"/>
<path d="M523.842 722.581L525.477 724.334L533.147 716.914L531.176 715.173L523.842 722.581Z" fill="#81EEE7"/>
<path d="M524.819 713.539L523.418 711.314L516.392 715.116L517.471 717.259L524.819 713.539Z" fill="#81EEE7"/>
<path d="M522.251 701.601L514.581 703.825L515.177 706.148L523.146 704.074L522.251 701.601Z" fill="#81EEE7"/>
<path d="M561.818 610.55L565.59 606.776L544.755 590.964L541.522 597.073L520.329 580.901L518.353 586.112L542.78 604.8L546.731 599.229L561.818 610.55Z" fill="#81EEE7"/>
<path d="M424.118 749.853L466.912 739.094L435.143 763.684L430.772 766.905V757.91L424.118 749.853Z" fill="#81EEE7"/>
<path d="M466.945 739.094L443.232 769.884L436.684 762.434L466.945 739.094Z" fill="#B6F3EF"/>
<path d="M321.644 857.867L278.85 847.108L310.619 871.698L314.99 874.92V865.925L321.644 857.867Z" fill="#81EEE7"/>
<path d="M278.817 847.108L302.53 877.899L309.078 870.448L278.817 847.108Z" fill="#B6F3EF"/>
<path d="M416.7 839.008L413.956 836.263L429.114 824.758L431.466 829.203L446.886 817.437L448.323 821.228L430.552 834.825L427.677 830.772L416.7 839.008Z" fill="#81EEE7"/>
<path d="M470.697 852.153L467.953 849.407L483.111 837.903L485.464 842.348L500.883 830.581L502.321 834.373L484.549 847.969L481.674 843.917L470.697 852.153Z" fill="#81EEE7"/>
<path d="M261.224 764.115L257.452 760.341L278.286 744.528L281.519 750.638L302.713 734.466L304.688 739.677L280.262 758.365L276.31 752.794L261.224 764.115Z" fill="#81EEE7"/>
<path d="M450.443 875.455H411.418C410.391 871.496 412.761 867.454 416.719 866.426C418.493 865.963 420.378 866.178 422.005 867.026C423.147 860.538 429.331 856.201 435.816 857.344C442.23 858.475 446.554 864.544 445.523 870.982C448.062 871.007 450.177 872.929 450.443 875.455Z" fill="#81EEE7"/>
<path d="M300.229 823.58H254.905C253.709 818.984 256.466 814.288 261.06 813.092C263.122 812.556 265.31 812.803 267.2 813.789C268.54 806.253 275.733 801.233 283.265 802.576C290.691 803.9 295.696 810.927 294.517 818.382C297.463 818.413 299.921 820.644 300.231 823.578H300.229V823.58Z" fill="#81EEE7"/>
<path d="M550.738 817.365H505.414C504.218 812.768 506.976 808.073 511.57 806.876C513.631 806.341 515.82 806.588 517.709 807.573C519.049 800.037 526.242 795.017 533.774 796.36C541.2 797.684 546.205 804.711 545.026 812.166C547.972 812.197 550.43 814.428 550.74 817.362H550.738V817.365Z" fill="#81EEE7"/>
<path d="M368.033 875.595L380.442 860.269L360.493 862.051L368.033 875.595Z" fill="#81EEE7"/>
<path d="M413.298 799.284L423.676 786.466L406.993 787.957L413.298 799.284Z" fill="#81EEE7"/>
<path d="M357.195 749.154C357.195 749.154 357.186 749.158 357.182 749.162C349.62 753.041 346.635 762.319 350.513 769.884L377.935 755.828C374.048 748.258 364.765 745.271 357.195 749.156V749.154Z" fill="#81EEE7"/>
<path d="M488.576 762.421C488.576 762.421 488.569 762.424 488.566 762.427C482.635 765.47 480.293 772.748 483.334 778.682L504.845 767.656C501.796 761.718 494.514 759.375 488.576 762.423V762.421Z" fill="#81EEE7"/>
<path d="M461.672 792.188C458.204 792.189 455.394 795.003 455.396 798.472C455.397 801.94 458.208 804.751 461.675 804.751H461.678C465.147 804.75 467.955 801.936 467.953 798.467C467.952 794.997 465.139 792.188 461.672 792.188Z" fill="#81EEE7"/>
<path d="M314.701 778.176C309.945 778.178 306.093 782.036 306.095 786.792C306.097 791.548 309.952 795.402 314.705 795.402H314.709C319.465 795.4 323.315 791.542 323.313 786.786C323.311 782.028 319.454 778.176 314.701 778.176Z" fill="#81EEE7"/>
<path d="M341.872 831.235L369.86 823.411L357.475 802.596L337.488 823.903L341.872 831.235Z" fill="#81EEE7"/>
<path d="M372.956 796.457L371.321 794.703L363.651 802.124L365.622 803.864L372.956 796.457Z" fill="#81EEE7"/>
<path d="M371.98 805.498L373.381 807.724L380.407 803.922L379.328 801.778L371.98 805.498Z" fill="#81EEE7"/>
<path d="M374.548 817.436L382.218 815.212L381.622 812.89L373.653 814.963L374.548 817.436Z" fill="#81EEE7"/>
<path d="M545.919 841.367L517.932 849.191L530.317 870.007L550.303 848.699L545.919 841.367Z" fill="#81EEE7"/>
<path d="M514.835 876.145L516.47 877.899L524.14 870.479L522.169 868.738L514.835 876.145Z" fill="#81EEE7"/>
<path d="M515.811 867.104L514.41 864.879L507.384 868.681L508.464 870.824L515.811 867.104Z" fill="#81EEE7"/>
<path d="M513.244 855.166L505.574 857.39L506.169 859.713L514.138 857.639L513.244 855.166Z" fill="#81EEE7"/>
<path d="M552.815 764.115L556.587 760.341L535.753 744.528L532.52 750.638L511.326 734.466L509.351 739.677L533.777 758.365L537.728 752.794L552.815 764.115Z" fill="#81EEE7"/>
</g>
</g>
</svg>
