<svg width="32" height="29" viewBox="0 0 32 29" fill="none" xmlns="http://www.w3.org/2000/svg">
<path d="M2.32636 4.15552L2.31982 26.897L16.2743 24.7223L16.2462 26.8768L30.213 24.6887L30.1775 2.02902L16.2336 4.15552L16.2915 2.01758L2.32636 4.15552Z" stroke="white" stroke-width="2.78643"/>
<path d="M16.2482 4.1671V2.0332L2.32324 4.1671V11.739L16.2482 9.60509V11.739L30.1732 9.60509V2.0332L16.2482 4.1671Z" fill="#4FC0ED"/>
<path d="M16.2482 11.7364V9.60254L2.32324 11.7364V19.3083L16.2482 17.1744V19.3083L30.1732 17.1744V9.60254L16.2482 11.7364Z" fill="#FBFBFB"/>
<path d="M16.2482 19.3097V17.1758L2.32324 19.3097V26.8816L16.2482 24.7477V26.8816L30.1732 24.7477V17.1758L16.2482 19.3097Z" fill="#4FC0ED"/>
</svg>
