<svg width="89" height="89" viewBox="0 0 89 89" fill="none" xmlns="http://www.w3.org/2000/svg">
<rect x="0.875977" y="0.821289" width="87.6953" height="87.6953" rx="43.8477" fill="#00DBD0"/>
<path d="M50.9179 41.628V24.9678C50.9179 24.3959 50.7085 23.3408 49.8991 22.6804C49.4561 22.3179 48.707 21.9796 47.8653 22.1729C46.7257 22.4307 46.2585 23.4616 46.2102 23.5704C46.2464 22.6119 46.2787 21.6534 46.3149 20.691C46.2907 19.66 45.7028 18.7458 44.8128 18.3552C43.6288 17.8397 42.5334 18.5203 42.3965 18.6089C41.4461 19.2251 41.1239 20.252 41.1239 20.7715V22.4267C41.0474 22.2857 40.5319 21.3433 39.4084 21.0896C38.3895 20.8641 37.4471 21.3313 36.9276 21.9152C36.4524 22.4508 36.2913 23.071 36.2913 23.4415V29.6715C36.1987 29.5466 35.357 28.4513 33.9959 28.4714C32.9085 28.4875 32.1917 29.1963 31.9702 29.4178C31.4991 29.8849 31.2735 30.3923 31.1648 30.6903C30.9796 32.9576 30.7661 36.2518 30.6977 40.2266C30.5809 47.0043 30.4278 53.4558 31.8414 60.7006C32.7314 65.2633 33.399 70.1898 37.5912 77.938" fill="#00DBD0"/>
<path d="M50.9179 41.628V24.9678C50.9179 24.3959 50.7085 23.3408 49.8991 22.6804C49.4561 22.3179 48.707 21.9796 47.8653 22.1729C46.7257 22.4307 46.2585 23.4616 46.2102 23.5704C46.2464 22.6119 46.2787 21.6534 46.3149 20.691C46.2907 19.66 45.7028 18.7458 44.8128 18.3552C43.6288 17.8397 42.5334 18.5203 42.3965 18.6089C41.4461 19.2251 41.1239 20.252 41.1239 20.7715V22.4267C41.0474 22.2857 40.5319 21.3433 39.4084 21.0896C38.3895 20.8641 37.4471 21.3313 36.9276 21.9152C36.4524 22.4508 36.2913 23.071 36.2913 23.4415V29.6715C36.1987 29.5466 35.3571 28.4512 33.9959 28.4714C32.9085 28.4875 32.1917 29.1963 31.9702 29.4178C31.4991 29.8849 31.2735 30.3923 31.1648 30.6903C30.9796 32.9576 30.7661 36.2518 30.6977 40.2266C30.5809 47.0043 30.4278 53.4558 31.8414 60.7006C32.7314 65.2633 33.399 70.1898 37.5912 77.938" stroke="white" stroke-width="2" stroke-linecap="round" stroke-linejoin="round"/>
<path d="M40.1104 47.8562C41.0245 46.5474 42.6837 44.5781 45.3255 43.1525C46.582 42.4719 48.4506 41.4893 50.9192 41.6262C51.6119 41.6625 52.1797 41.7793 52.5743 41.88C54.0604 40.3174 55.5101 39.3791 56.5169 38.8274C58.3734 37.8125 59.3118 37.7964 59.6943 37.8085C60.8783 37.8528 61.7884 38.3602 62.2798 38.6985C58.7479 42.5968 55.2161 46.4991 51.6803 50.3974C51.64 53.462 51.9381 57.7549 53.4603 62.6076C55.7357 69.8565 57.2257 73.2587 59.6943 75.9368" fill="#00DBD0"/>
<path d="M40.1104 47.8562C41.0245 46.5474 42.6837 44.5781 45.3255 43.1525C46.582 42.4719 48.4506 41.4893 50.9192 41.6262C51.6119 41.6625 52.1797 41.7793 52.5743 41.88C54.0604 40.3174 55.5101 39.3791 56.5169 38.8274C58.3734 37.8125 59.3118 37.7964 59.6943 37.8085C60.8783 37.8528 61.7884 38.3602 62.2798 38.6985C58.748 42.5968 55.2161 46.4991 51.6803 50.3974C51.64 53.462 51.9381 57.7549 53.4603 62.6076C55.7356 69.8565 57.2257 73.2587 59.6943 75.9368" stroke="white" stroke-width="2" stroke-linecap="round" stroke-linejoin="round"/>
<path d="M36.2954 29.6709C36.2914 32.4738 36.2833 35.2767 36.2793 38.0796L36.2954 29.6709Z" fill="#00DBD0"/>
<path d="M36.2954 29.6709C36.2914 32.4738 36.2833 35.2767 36.2793 38.0796" stroke="white" stroke-width="2" stroke-linecap="round" stroke-linejoin="round"/>
<path d="M41.1249 22.2354L41.0967 36.2538" stroke="white" stroke-width="2" stroke-linecap="round" stroke-linejoin="round"/>
<path d="M46.2168 22.2949V34.9482" stroke="white" stroke-width="2" stroke-linecap="round" stroke-linejoin="round"/>
<path d="M63 24.2041C64.1437 25.0136 66.5801 26.9788 68.0218 30.4341C69.681 34.4048 69.0286 37.9648 68.783 39.2092C68.5977 40.1596 68.348 40.9409 68.1467 41.4966" fill="#00DBD0"/>
<path d="M63 24.2041C64.1437 25.0136 66.5801 26.9788 68.0218 30.4341C69.681 34.4048 69.0286 37.9648 68.783 39.2092C68.5977 40.1596 68.348 40.9409 68.1467 41.4966" stroke="white" stroke-width="2" stroke-miterlimit="10"/>
<path d="M66.7549 18.3545C68.5872 20.0902 76.7019 28.1324 75.53 38.4459C75.3689 39.8514 75.0186 41.4662 74.3219 43.214" fill="#00DBD0"/>
<path d="M66.7549 18.3545C68.5872 20.0902 76.7019 28.1324 75.53 38.4459C75.3689 39.8514 75.0186 41.4662 74.3219 43.214" stroke="white" stroke-width="2" stroke-miterlimit="10"/>
<path d="M22.4328 35.5225C22.018 36.2192 21.5066 37.2058 21.0958 38.4462C20.077 41.5269 20.3548 44.1285 20.4595 44.9339C20.9388 48.5301 22.6664 50.9303 23.4477 51.9935C24.1081 52.8875 24.7525 53.5681 25.2277 54.0272" fill="#00DBD0"/>
<path d="M22.4328 35.5225C22.018 36.2192 21.5066 37.2058 21.0958 38.4462C20.077 41.5269 20.3548 44.1285 20.4595 44.9339C20.9388 48.5301 22.6664 50.9303 23.4477 51.9935C24.1081 52.8875 24.7525 53.5681 25.2277 54.0272" stroke="white" stroke-width="2" stroke-miterlimit="10"/>
<path d="M16.5204 32.5352C15.4049 35.1931 13.786 40.1545 14.676 45.9536C15.1995 49.3605 16.452 52.1514 16.903 53.138C17.5876 54.6441 18.6145 56.5611 20.1448 58.6069" fill="#00DBD0"/>
<path d="M16.5204 32.5352C15.4049 35.1931 13.786 40.1545 14.676 45.9536C15.1995 49.3605 16.452 52.1514 16.903 53.138C17.5876 54.6442 18.6145 56.5611 20.1448 58.6069" stroke="white" stroke-width="2" stroke-miterlimit="10"/>
</svg>
