<svg width="107" height="34" viewBox="0 0 107 34" fill="none" xmlns="http://www.w3.org/2000/svg">
<path d="M43.0507 7.01702L95.9307 0.676758L94.2818 27.615L39.6005 33.9549L43.0507 7.01702Z" fill="#ED1D55"/>
<path d="M97.6704 30.7474C99.132 30.4084 100.042 28.9471 99.7037 27.4836C99.3651 26.0201 97.9058 25.1085 96.4442 25.4476C94.9827 25.7867 94.0723 27.2479 94.411 28.7114C94.7496 30.175 96.2089 31.0865 97.6704 30.7474Z" fill="#ED1D55"/>
<path d="M100.172 1.99117L106.212 1.25098L99.7734 22.8764C99.5778 23.534 98.9004 23.9207 98.2357 23.755C97.5991 23.5963 97.1849 22.9813 97.2769 22.3307L100.172 1.99154V1.99117Z" fill="#ED1D55"/>
<path d="M2.59693 6.79404L49.0874 1.61523L45.4757 28.5553L0.947998 33.7345L2.59693 6.79404Z" fill="#ED1D55"/>
<path d="M35.7472 27.1383C34.6717 27.2602 33.6158 27.38 32.5399 27.502C32.9082 21.3904 33.2758 15.293 33.6434 9.19556C33.622 9.19301 33.6009 9.19047 33.5794 9.18792C32.5003 15.3742 31.4211 21.5604 30.3408 27.7525C29.5391 27.8435 28.7461 27.9334 27.9258 28.0266C27.6033 21.9977 27.2815 15.9804 26.9597 9.96306C26.9375 9.9627 26.9153 9.96233 26.8928 9.96197C26.5143 16.0627 26.1362 22.163 25.7573 28.2717C24.8308 28.3769 23.9193 28.4803 22.9783 28.587C23.4157 21.4272 23.8516 14.2833 24.289 7.12535C25.8896 6.94367 27.4742 6.76381 29.0864 6.58104C29.2973 10.3559 29.5075 14.1133 29.7173 17.8711C29.7354 17.874 29.754 17.8769 29.7722 17.8798C29.7903 17.8012 29.8125 17.7233 29.8267 17.6439C30.4786 13.9469 31.1317 10.25 31.776 6.55155C31.8149 6.32763 31.8894 6.2377 32.1276 6.21258C33.6802 6.0491 35.2306 5.86706 36.7817 5.6912C36.8755 5.68064 36.9697 5.66972 37.0897 5.65625C36.641 12.835 36.1941 19.9854 35.7472 27.1383Z" fill="white"/>
<path d="M75.3694 5.8264C75.5807 9.60565 75.7904 13.3612 76.0002 17.1168C76.0188 17.119 76.0373 17.1212 76.0559 17.1234C76.0744 17.0433 76.0966 16.9639 76.1108 16.8834C76.7627 13.1865 77.4161 9.48951 78.0593 5.79072C78.0997 5.55916 78.1873 5.48307 78.4171 5.45867C79.9693 5.29374 81.5201 5.11242 83.0712 4.93657L83.3726 4.90234C82.9239 12.0804 82.4775 19.2249 82.0306 26.3814C80.9671 26.502 79.9126 26.6217 78.8236 26.7452C79.1916 20.6408 79.5592 14.5423 79.9264 8.44421C79.905 8.44202 79.8835 8.43947 79.8621 8.43729C78.7829 14.6239 77.7037 20.8105 76.6245 26.9968C75.8159 27.0885 75.0232 27.1784 74.2088 27.2709C73.8863 21.2412 73.5645 15.2246 73.2427 9.20807C73.2205 9.20807 73.1983 9.20771 73.1762 9.20734C72.798 15.304 72.4199 21.4007 72.041 27.5127C71.1204 27.6172 70.2022 27.7213 69.2634 27.8276C69.3023 27.1773 69.3398 26.5398 69.3787 25.9023C69.5452 23.1742 69.7129 20.4464 69.8794 17.7183C70.0572 14.807 70.2343 11.8954 70.4117 8.98415C70.4604 8.18643 70.5095 7.38871 70.5568 6.59099C70.5644 6.45992 70.5586 6.35033 70.7487 6.32994C72.237 6.16901 73.7241 5.9968 75.2116 5.82859C75.2501 5.82422 75.2894 5.82749 75.3694 5.8264Z" fill="white"/>
<path d="M54.5833 8.18429C55.9395 8.03028 57.2648 7.87991 58.584 7.73027C59.0614 11.9493 59.537 16.1528 60.0125 20.3565C60.0253 20.3584 60.038 20.3602 60.0507 20.3624C60.3158 16.0679 60.5809 11.7735 60.8466 7.46995C61.7818 7.364 62.7021 7.2595 63.6558 7.15137C63.2082 14.3137 62.7618 21.4634 62.3145 28.6221C61.1074 28.759 59.9093 28.8948 58.7098 29.031C58.1455 24.0444 57.5822 19.0673 57.019 14.0898C57.0063 14.0887 56.9936 14.0876 56.9808 14.0865C56.6711 19.166 56.3616 24.245 56.0515 29.3321C55.1247 29.4373 54.2127 29.5407 53.2725 29.6474C53.7099 22.4876 54.1458 15.3434 54.5833 8.18429Z" fill="white"/>
<path d="M12.0696 26.3585C12.1274 25.2743 12.1797 24.1896 12.2445 23.1057C12.4074 20.37 12.4245 19.3968 12.5993 16.6617C12.6743 15.4905 12.7171 14.3119 12.8884 13.1537C13.0946 11.7611 13.7723 10.6036 15.0762 9.9541C16.4841 9.25287 17.9519 9.16294 19.4056 9.82485C20.3222 10.2421 20.8415 11.0143 21.1073 11.9693C21.3371 12.7947 21.2778 13.6325 21.2243 14.4714C21.0404 17.3579 21.0055 18.4822 20.8222 21.3687C20.736 22.7242 20.6688 24.0815 20.5499 25.4341C20.4364 26.7255 19.9808 27.8735 18.9504 28.7309C18.4359 29.1587 17.8421 29.4318 17.1924 29.5687C16.3052 29.7551 15.4122 29.7937 14.5333 29.5268C13.2589 29.1398 12.523 28.2525 12.2259 26.9767C12.179 26.7747 12.151 26.5679 12.1143 26.3636C12.0994 26.3622 12.0845 26.3607 12.0699 26.3593L12.0696 26.3585ZM18.0276 13.3416C17.9654 12.6447 17.7767 12.3636 17.428 12.2792C16.8229 12.1328 16.3426 12.4088 16.1681 13.0077C16.1325 13.1301 16.0994 13.256 16.0903 13.3824C16.0027 14.6097 15.9147 15.8371 15.8379 17.0648C15.6434 20.1752 15.5972 21.5238 15.4107 24.6349C15.3816 25.1206 15.35 25.6107 15.3831 26.0946C15.4154 26.5657 15.6565 26.8053 16.0168 26.8544C16.5172 26.9225 16.9291 26.7448 17.0993 26.3327C17.2102 26.0636 17.2909 25.7683 17.3134 25.4796C17.4062 24.2847 17.4723 23.0875 17.5461 21.8911C17.7203 19.0756 17.7483 18.0223 17.921 15.2065C17.9628 14.5209 17.9999 13.8353 18.0279 13.342L18.0276 13.3416Z" fill="white"/>
<path d="M83.9894 22.6564C84.0472 21.5722 84.0995 20.4876 84.1643 19.4037C84.3272 16.6679 84.4893 13.9321 84.6642 11.1974C84.7391 10.0262 84.782 8.84762 84.9533 7.68945C85.1594 6.2968 85.8368 5.139 87.1407 4.48946C88.5482 3.78823 90.0164 3.69793 91.4701 4.35985C92.3867 4.77709 92.9067 5.54896 93.1718 6.50397C93.4034 7.33737 93.3405 8.18279 93.2863 9.02966C93.1019 11.9082 92.9242 14.787 92.7413 17.6655C92.6555 19.021 92.5878 20.3783 92.4693 21.7309C92.3559 23.0224 91.9006 24.1707 90.8702 25.0278C90.3557 25.4559 89.7619 25.729 89.1121 25.8655C88.225 26.0523 87.332 26.0905 86.4531 25.824C85.1787 25.4374 84.4428 24.5501 84.145 23.2743C84.1068 23.1108 84.0835 22.9441 84.0548 22.7784C84.0479 22.7391 84.0454 22.699 84.041 22.6594L83.9894 22.6564ZM90.0924 7.88169C90.0321 7.1921 89.8554 6.91721 89.5201 6.82327C88.9293 6.65798 88.4213 6.93105 88.242 7.51578C88.2024 7.64503 88.1653 7.77901 88.1555 7.91263C88.0672 9.13998 87.9792 10.3673 87.9025 11.595C87.7018 14.8012 87.5014 18.0077 87.316 21.2146C87.2887 21.6883 87.3218 22.1686 87.365 22.6422C87.3861 22.8742 87.5596 23.0395 87.7919 23.117C88.3111 23.2903 88.8623 23.0562 89.0594 22.5476C89.1532 22.3051 89.2154 22.04 89.2343 21.7808C89.3278 20.4897 89.403 19.1972 89.4827 17.9051C89.6506 15.1853 89.8183 12.4652 89.9852 9.74546C90.027 9.05988 90.0644 8.3743 90.0928 7.88132L90.0924 7.88169Z" fill="white"/>
<path d="M51.0825 8.56641C51.4097 15.6632 51.7351 22.7153 52.0609 29.7815L48.8547 30.1453C48.8187 28.6609 48.7823 27.1801 48.7452 25.66C48.4496 25.6935 48.1747 25.7249 47.8999 25.7558C47.6293 25.7864 47.3595 25.8308 47.0887 25.8432C46.8967 25.8519 46.8367 25.9353 46.812 26.1144C46.6272 27.4594 46.424 28.8021 46.2498 30.1482C46.2156 30.4114 46.1164 30.481 45.8699 30.505C44.9147 30.5982 43.9617 30.7154 42.9763 30.8272C42.9872 30.7194 42.9912 30.6291 43.0058 30.5407C43.97 24.7669 44.935 18.9932 45.9 13.2198C46.116 11.928 46.336 10.637 46.5447 9.3441C46.5756 9.15296 46.6316 9.06375 46.8465 9.04118C48.1678 8.90355 49.4873 8.74772 50.8076 8.59808C50.8854 8.58935 50.9632 8.58024 51.0821 8.56677L51.0825 8.56641ZM48.6925 12.0839C48.6718 12.0824 48.6511 12.0806 48.63 12.0791C48.1387 15.7288 47.6475 19.3784 47.1537 23.0452C47.7064 22.9825 48.2285 22.9232 48.7714 22.8617C48.7449 19.2637 48.7187 15.6738 48.6925 12.0839Z" fill="white"/>
<path d="M45.5509 6.54431C45.4912 7.48766 45.4334 8.40153 45.3745 9.33287C44.0285 9.48543 43.3889 9.6114 42.0363 9.76468C41.9225 11.6758 41.732 12.7801 41.6174 14.7036C42.7915 14.5703 42.5577 14.5889 43.7434 14.4542C43.7158 14.8543 43.6918 15.2238 43.6645 15.593C43.6292 16.0711 43.5769 16.5484 43.5609 17.0272C43.554 17.234 43.4689 17.2733 43.2911 17.2922C42.2963 17.3978 42.6857 17.3723 41.6902 17.4728C41.4865 17.4936 41.4302 17.5635 41.4182 17.7615C41.2775 20.0742 41.2044 21.2888 41.0575 23.6012C41.0549 23.6405 41.0622 23.6805 41.0669 23.7515C42.4028 23.6001 43.7336 23.449 45.1095 23.2928C45.0506 24.2434 44.9938 25.1562 44.936 26.0872C42.5108 26.3624 40.0903 26.637 37.6382 26.9151C37.664 26.4615 37.688 26.0107 37.7156 25.5603C37.8883 22.7292 38.0614 19.8984 38.2349 17.0672C38.4079 14.2441 38.5817 13.3087 38.7544 10.4856C38.8141 9.51273 38.8733 8.53952 38.9275 7.56631C38.9359 7.41375 38.9613 7.32601 39.1478 7.30526C41.4469 7.05185 45.4593 6.54831 45.5505 6.54395L45.5509 6.54431Z" fill="white"/>
<path d="M3.854 9.51554C4.94008 9.39248 6.01017 9.27087 7.13806 9.14308C7.38931 11.3629 7.63946 13.574 7.88962 15.7852C7.92053 15.787 7.95143 15.7888 7.98234 15.791C8.00416 15.7138 8.02888 15.637 8.04706 15.5587C8.54883 13.4124 9.05243 11.2661 9.54729 9.11796C9.5931 8.91843 9.66654 8.83251 9.88361 8.81103C10.8788 8.71272 11.8718 8.59185 12.9059 8.47461C12.875 8.59512 12.8535 8.69161 12.8259 8.7859C11.6482 12.8273 10.4596 16.8658 9.3044 20.9137C9.15823 21.4264 9.16878 21.9874 9.13533 22.5277C8.97825 25.056 8.83208 27.5849 8.67537 30.1132C8.671 30.1816 8.59356 30.2963 8.53938 30.3029C7.51439 30.4285 6.48795 30.541 5.46186 30.6557C5.44732 30.6571 5.43131 30.648 5.40477 30.6404C5.46113 29.6701 5.5164 28.6976 5.57421 27.7248C5.69856 25.6349 5.83892 23.5457 5.93672 21.4544C5.95636 21.0321 5.82582 20.6006 5.75055 20.1761C5.3655 18.0025 4.97609 15.8296 4.58703 13.6571C4.35033 12.3343 4.11144 11.0123 3.87401 9.68957C3.86456 9.63678 3.86128 9.5829 3.854 9.51554Z" fill="white"/>
<path d="M67.4215 28.0406C66.3201 28.1655 65.249 28.2871 64.1534 28.4113C64.5909 21.2514 65.0268 14.108 65.4642 6.95108C66.5488 6.82802 67.6178 6.70678 68.7326 6.58008C68.2956 13.7366 67.8589 20.8841 67.4215 28.0406Z" fill="white"/>
</svg>
