<svg width="25" height="21" viewBox="0 0 25 21" fill="none" xmlns="http://www.w3.org/2000/svg">
<path d="M24.0518 15.0736L20.2459 11.2098H11.3655C11.0291 11.2098 10.7064 11.0741 10.4685 10.8326C10.2306 10.591 10.0969 10.2634 10.0969 9.92186V2.19419C10.0969 1.85261 10.2306 1.52502 10.4685 1.28348C10.7064 1.04194 11.0291 0.90625 11.3655 0.90625H22.7831C23.1196 0.90625 23.4423 1.04194 23.6802 1.28348C23.9181 1.52502 24.0518 1.85261 24.0518 2.19419V15.0736Z" stroke="#9E9E9E" stroke-width="1.5" stroke-linecap="round" stroke-linejoin="round"/>
<path d="M15.2512 14.0662V14.4594C15.2512 14.7921 15.1176 15.1111 14.8796 15.3464C14.6417 15.5816 14.3191 15.7138 13.9826 15.7138H5.10225L1.29639 19.4769V6.93309C1.29639 6.60041 1.43004 6.28135 1.66796 6.04611C1.90587 5.81087 2.22855 5.67871 2.56501 5.67871H7.82348" stroke="#9E9E9E" stroke-width="1.5" stroke-linecap="round" stroke-linejoin="round"/>
</svg>
