<svg width="30" height="21" viewBox="0 0 30 21" fill="none" xmlns="http://www.w3.org/2000/svg">
<path fill-rule="evenodd" clip-rule="evenodd" d="M17.0527 0.504184C18.2726 -0.14944 19.8093 0.700692 19.8093 2.11146V15.0621C19.8093 16.4815 18.265 17.3118 17.0526 16.6801C14.3796 15.2874 11.7211 14.3072 9.32803 13.6325V18.4322C9.32803 19.72 8.27219 20.764 6.96975 20.764C5.6673 20.764 4.61146 19.72 4.61146 18.4322V12.6015C3.68793 12.4602 2.87353 12.3742 2.19835 12.3306C1.23415 12.2683 0.418945 11.4895 0.418945 10.4815V7.19448C0.418945 6.18333 1.24079 5.40646 2.2074 5.3521C7.66196 5.0454 13.5922 2.3584 17.0527 0.504184ZM6.18365 12.8778C6.68676 12.9773 7.21199 13.0916 7.75584 13.2221V18.4322C7.75584 18.8615 7.40389 19.2095 6.96975 19.2095C6.5356 19.2095 6.18365 18.8615 6.18365 18.4322V12.8778ZM17.7856 15.3048C13.5902 13.1189 9.43022 11.9094 6.18365 11.2937V6.35594C10.7241 5.36991 15.0774 3.33068 17.8018 1.87095C18.0087 1.76005 18.2371 1.91757 18.2371 2.11146V15.0621C18.2371 15.1603 18.1882 15.243 18.0951 15.2965C17.9995 15.3515 17.8865 15.3574 17.7856 15.3048ZM2.29667 6.90414C3.0642 6.86098 3.83814 6.77426 4.61146 6.65192V11.0293C3.73753 10.9018 2.9594 10.8219 2.30084 10.7794C2.10978 10.767 1.99114 10.6183 1.99114 10.4815V7.19448C1.99114 7.0609 2.10742 6.91478 2.29667 6.90414ZM24.2639 7.80947C23.8297 7.80947 23.4778 8.15747 23.4778 8.58674C23.4778 9.01602 23.8297 9.36401 24.2639 9.36401H28.4564C28.8905 9.36401 29.2425 9.01602 29.2425 8.58674C29.2425 8.15747 28.8905 7.80947 28.4564 7.80947L24.2639 7.80947ZM22.6599 5.15454C22.3529 4.851 22.3529 4.35886 22.6599 4.05531L25.9697 0.782586C26.2767 0.479042 26.7745 0.479042 27.0815 0.782586C27.3884 1.08613 27.3884 1.57827 27.0815 1.88182L23.7716 5.15454C23.4646 5.45809 22.9669 5.45809 22.6599 5.15454ZM23.7716 12.1826C23.4646 11.879 22.9669 11.879 22.6599 12.1826C22.3529 12.4861 22.3529 12.9783 22.6599 13.2818L25.9698 16.5545C26.2767 16.8581 26.7745 16.8581 27.0815 16.5545C27.3885 16.251 27.3885 15.7588 27.0815 15.4553L23.7716 12.1826Z" fill="#9E9E9E"/>
</svg>
