<svg width="60" height="41" viewBox="0 0 60 41" fill="none" xmlns="http://www.w3.org/2000/svg">
<path d="M49.7239 0.654297H14.3852C9.05771 0.654297 4.73808 4.84224 4.73808 10.0094V10.0112C4.73808 15.1783 9.05771 19.3663 14.3852 19.3663H15.4736C16.288 19.3672 16.947 20.009 16.946 20.7987C16.9451 21.5867 16.2862 22.2257 15.4736 22.2266H10.6107C5.2823 22.2257 0.962682 26.4145 0.962682 31.5807C0.962682 36.7479 5.2823 40.9358 10.6098 40.9358H45.9485C51.2769 40.9358 55.5957 36.7479 55.5957 31.5807C55.5957 26.4136 51.276 22.2257 45.9485 22.2257H39.087C38.2726 22.2248 37.6136 21.583 37.6146 20.7932C37.6155 20.0053 38.2745 19.3663 39.087 19.3654H49.723C55.0504 19.3654 59.3701 15.1774 59.3711 10.0112C59.372 4.84408 55.0523 0.654297 49.7249 0.654297H49.7239Z" fill="#CEFFFD"/>
<path d="M9.08618 21.4622C9.48239 21.8352 14.1362 26.203 17.1847 28.5008C17.6343 28.8397 18.4499 29.4332 19.6347 29.6443C21.0554 29.898 22.1795 29.4918 22.6214 29.3042C26.181 27.5711 29.7406 25.838 33.301 24.1051L31.0279 38.5661C32.3583 37.932 33.6887 37.2987 35.0183 36.6645C35.7978 36.1889 36.3234 35.6725 36.6482 35.3023C37.0121 34.8879 37.2303 34.5386 37.2895 34.4422C37.641 33.8673 37.8313 33.3342 37.9376 32.953L42.0356 20.016C45.4527 18.2269 48.8699 16.437 52.2862 14.6477C52.1384 14.0495 51.7999 13.0394 50.9652 12.1138C49.2803 10.245 46.7799 10.1859 45.5585 10.1516C44.6791 10.1271 43.1419 10.2018 41.3355 10.9548C33.8535 14.6707 26.3723 18.3866 18.8903 22.1025C18.3944 22.3488 17.8235 22.3992 17.2919 22.246C15.9122 21.8481 14.8195 21.469 14.0363 21.1785C13.1791 20.8604 12.5941 20.6131 11.748 20.6162C10.5902 20.6208 9.66164 21.0922 9.08618 21.4622Z" fill="#2FBBB4"/>
<path d="M28.8188 17.2322C25.7971 15.3038 22.7747 13.3745 19.753 11.4461C19.3856 11.2114 19.4042 10.6698 19.787 10.4609C21.1089 9.73899 22.4306 9.01786 23.7516 8.29582C23.8918 8.21935 24.0567 8.20443 24.208 8.25545C28.6772 9.75313 33.2991 11.3374 37.7682 12.8351" fill="#2FBBB4"/>
</svg>
