<svg width="27" height="26" viewBox="0 0 27 26" fill="none" xmlns="http://www.w3.org/2000/svg">
<g clip-path="url(#clip0_225_4893)">
<path d="M6.14648 8.00548C6.14648 9.10613 6.58868 10.1617 7.37579 10.94C8.1629 11.7183 9.23046 12.1555 10.3436 12.1555C11.4567 12.1555 12.5243 11.7183 13.3114 10.94C14.0985 10.1617 14.5407 9.10613 14.5407 8.00548C14.5407 6.90483 14.0985 5.84926 13.3114 5.07098C12.5243 4.2927 11.4567 3.85547 10.3436 3.85547C9.23046 3.85547 8.1629 4.2927 7.37579 5.07098C6.58868 5.84926 6.14648 6.90483 6.14648 8.00548Z" stroke="#73D2CC" stroke-width="1.50165" stroke-linecap="round" stroke-linejoin="round"/>
<path d="M4.0481 22.5297V20.4547C4.0481 19.354 4.49029 18.2985 5.2774 17.5202C6.06452 16.7419 7.13207 16.3047 8.24521 16.3047H12.4423C13.5555 16.3047 14.623 16.7419 15.4101 17.5202C16.1973 18.2985 16.6395 19.354 16.6395 20.4547V22.5297" stroke="#73D2CC" stroke-width="1.50165" stroke-linecap="round" stroke-linejoin="round"/>
<path d="M17.6882 3.99023C18.591 4.2188 19.3913 4.73796 19.9627 5.46588C20.5341 6.19381 20.8443 7.08908 20.8443 8.01056C20.8443 8.93203 20.5341 9.8273 19.9627 10.5552C19.3913 11.2831 18.591 11.8023 17.6882 12.0309" stroke="#73D2CC" stroke-width="1.50165" stroke-linecap="round" stroke-linejoin="round"/>
<path d="M22.9342 22.5303V20.4553C22.9289 19.5394 22.6172 18.6509 22.0479 17.9284C21.4785 17.2059 20.6833 16.6899 19.7864 16.4609" stroke="#73D2CC" stroke-width="1.50165" stroke-linecap="round" stroke-linejoin="round"/>
</g>
<defs>
<clipPath id="clip0_225_4893">
<rect width="25.1827" height="24.9001" fill="white" transform="translate(0.899658 0.742188)"/>
</clipPath>
</defs>
</svg>
