<svg width="20" height="19" viewBox="0 0 20 19" fill="none" xmlns="http://www.w3.org/2000/svg">
<path d="M10.1284 0.655273C10.8413 0.655317 11.5299 0.91503 12.0653 1.38586L12.2064 1.51877L12.8463 2.15861C13.0219 2.33306 13.2512 2.44319 13.4971 2.47119L13.6209 2.47852H14.5375C15.2866 2.47848 16.0074 2.76505 16.552 3.27945C17.0965 3.79386 17.4237 4.49712 17.4663 5.24502L17.4709 5.41186V6.32852C17.4709 6.57602 17.5552 6.81711 17.7074 7.00961L17.7899 7.10127L18.4288 7.74111C18.9584 8.26768 19.2671 8.97643 19.2922 9.72282C19.3172 10.4692 19.0566 11.1971 18.5635 11.7579L18.4306 11.8991L17.7908 12.5389C17.6163 12.7145 17.5062 12.9438 17.4782 13.1898L17.4709 13.3135V14.2302C17.4709 14.9793 17.1843 15.7001 16.6699 16.2446C16.1555 16.7892 15.4523 17.1163 14.7044 17.1589L14.5375 17.1635H13.6209C13.3737 17.1636 13.1338 17.2469 12.9398 17.4L12.8481 17.4825L12.2083 18.1214C11.6817 18.651 10.973 18.9598 10.2266 18.9848C9.48017 19.0099 8.75233 18.7493 8.19144 18.2562L8.05028 18.1233L7.41044 17.4834C7.23485 17.309 7.00554 17.1989 6.75961 17.1709L6.63586 17.1635H5.71919C4.97008 17.1636 4.24933 16.877 3.70476 16.3626C3.16018 15.8482 2.83305 15.1449 2.79044 14.397L2.78586 14.2302V13.3135C2.78578 13.0664 2.70247 12.8265 2.54936 12.6324L2.46686 12.5408L1.82794 11.9009C1.29837 11.3744 0.98958 10.6656 0.964541 9.91923C0.939502 9.17283 1.2001 8.44499 1.69319 7.88411L1.82611 7.74294L2.46594 7.10311C2.6404 6.92751 2.75052 6.69821 2.77853 6.45227L2.78586 6.32852V5.41186L2.79044 5.24502C2.83137 4.52585 3.1355 3.84688 3.64486 3.33752C4.15421 2.82816 4.83318 2.52404 5.55236 2.48311L5.71919 2.47852H6.63586C6.88301 2.47844 7.12293 2.39513 7.31694 2.24202L7.40861 2.15952L8.04844 1.52061C8.321 1.24642 8.64507 1.02882 9.00202 0.880315C9.35897 0.731809 9.74175 0.655329 10.1284 0.655273ZM13.5173 7.33044C13.3454 7.15859 13.1123 7.06205 12.8692 7.06205C12.6261 7.06205 12.393 7.15859 12.2211 7.33044L9.20253 10.3481L8.01728 9.16377L7.93111 9.08769C7.74687 8.94523 7.51531 8.87824 7.28346 8.90032C7.05161 8.92241 6.83687 9.03192 6.68284 9.2066C6.52881 9.38129 6.44704 9.60805 6.45415 9.84084C6.46126 10.0736 6.55671 10.295 6.72111 10.4599L8.55444 12.2933L8.64061 12.3694C8.81698 12.5062 9.03721 12.5739 9.25998 12.5599C9.48276 12.5459 9.69277 12.4511 9.85061 12.2933L13.5173 8.62661L13.5934 8.54044C13.7302 8.36407 13.7979 8.14384 13.7839 7.92107C13.7699 7.69829 13.6751 7.48828 13.5173 7.33044Z" fill="#00DBD0"/>
</svg>
